<?xml version="1.0" standalone="no"?>
<!DOCTYPE svg PUBLIC "-//W3C//DTD SVG 20010904//EN"
 "http://www.w3.org/TR/2001/REC-SVG-20010904/DTD/svg10.dtd">
<svg version="1.0" xmlns="http://www.w3.org/2000/svg"
 width="1040.000000pt" height="1040.000000pt" viewBox="0 0 1040.000000 1040.000000"
 preserveAspectRatio="xMidYMid meet">

<g transform="translate(0.000000,1040.000000) scale(0.100000,-0.100000)"
fill="#000000" stroke="none">
<path d="M6759 8866 c-135 -36 -239 -149 -239 -259 0 -40 -3 -47 -20 -47 -19
0 -48 23 -164 132 -75 71 -105 83 -211 83 -131 0 -179 -31 -273 -172 -68 -101
-135 -143 -227 -143 -22 0 -78 18 -139 44 -56 25 -123 50 -149 57 -93 23 -185
-8 -228 -77 -19 -32 -21 -45 -15 -118 7 -96 1 -106 -59 -106 -55 0 -125 -37
-149 -79 -26 -45 -26 -117 0 -162 15 -25 41 -45 104 -76 127 -65 125 -61 125
-208 l0 -123 -30 6 c-16 4 -111 7 -210 7 -162 -1 -191 -3 -288 -28 -295 -74
-563 -243 -694 -437 -110 -164 -159 -356 -121 -482 47 -157 283 -235 536 -177
l53 13 39 -39 40 -39 -69 -17 c-178 -45 -432 -229 -543 -393 -110 -160 -152
-418 -112 -683 44 -297 213 -769 418 -1168 141 -273 409 -730 612 -1043 71
-108 75 -112 109 -112 30 0 35 -3 35 -24 0 -13 28 -70 63 -127 35 -57 104
-171 154 -254 133 -218 194 -307 229 -330 28 -19 30 -23 18 -40 -8 -10 -14
-22 -14 -27 0 -13 43 -9 89 7 55 19 316 79 461 105 182 33 209 45 188 83 -7
14 -16 17 -34 13 -13 -3 -36 -9 -50 -12 l-26 -7 26 26 c30 30 33 62 9 91 -18
21 -18 21 3 3 26 -21 50 -22 58 -1 3 9 6 43 6 76 0 78 -30 133 -92 168 -77 44
-200 27 -258 -35 -18 -19 -21 -30 -15 -63 7 -42 28 -60 50 -42 8 7 16 7 19 2
3 -5 18 -12 33 -15 16 -3 36 -12 46 -19 15 -11 -7 -13 -135 -13 -84 0 -172 -3
-194 -7 -40 -8 -42 -7 -67 31 -14 21 -64 115 -111 209 -76 151 -111 202 -138
202 -17 0 -5 -32 66 -186 78 -168 80 -180 26 -185 -75 -7 -93 0 -144 54 -52
53 -140 212 -152 273 -10 50 27 81 221 184 218 116 304 173 330 222 20 37 20
38 1 105 -30 110 -31 108 41 111 l62 3 18 -38 18 -38 126 4 c168 5 268 -23
241 -66 -4 -6 -74 -23 -156 -37 -155 -26 -196 -43 -196 -77 0 -18 4 -20 33
-15 30 5 219 33 385 56 85 12 132 33 132 59 0 34 -23 43 -69 26 -38 -13 -41
-13 -41 3 0 29 -27 58 -77 83 -41 19 -64 23 -153 23 -58 1 -125 -1 -149 -4
l-45 -5 -26 75 c-45 126 -90 204 -107 186 -6 -5 14 -76 34 -123 5 -13 -71 -52
-108 -56 -14 -2 -48 58 -152 268 -73 149 -224 441 -335 650 -204 387 -337 664
-367 768 -16 56 -16 59 5 102 27 56 85 104 229 188 l114 67 34 -40 c38 -44 58
-50 68 -20 8 24 10 20 -85 145 -41 55 -119 161 -172 235 -127 177 -321 409
-381 457 -36 29 -43 39 -30 42 10 2 52 17 93 33 60 24 76 27 85 16 5 -7 29
-26 53 -41 86 -56 196 -182 297 -339 86 -133 99 -106 24 46 -68 137 -214 307
-302 353 l-32 16 60 27 c33 15 121 61 195 102 74 42 168 92 208 112 67 34 74
35 100 22 62 -31 224 -75 322 -86 136 -16 254 -8 355 24 94 30 106 31 145 11
41 -21 52 -47 99 -236 44 -181 90 -320 153 -469 90 -212 209 -420 273 -478
l36 -33 34 20 34 20 180 -180 c98 -98 185 -179 192 -179 7 0 2 -12 -13 -27
-37 -39 -44 -74 -20 -103 19 -23 27 -25 132 -27 73 -1 128 3 158 13 26 7 82
14 125 14 77 0 77 0 97 -32 11 -18 52 -113 91 -212 58 -144 69 -180 58 -187
-32 -18 -52 -40 -145 -159 -53 -69 -215 -264 -358 -435 -144 -170 -300 -357
-347 -415 -48 -58 -119 -141 -159 -185 -122 -134 -270 -313 -296 -358 -23 -41
-32 -87 -16 -87 10 0 111 105 193 200 35 41 134 154 219 250 138 157 273 314
579 674 93 109 306 375 347 431 l21 30 32 -85 c18 -47 75 -192 127 -322 52
-130 94 -239 94 -241 0 -3 -46 -27 -102 -55 -375 -183 -622 -512 -692 -921
-21 -122 -21 -347 0 -466 18 -107 70 -268 115 -357 118 -236 319 -435 553
-549 l101 -48 -45 -1 c-54 0 -178 -18 -192 -27 -43 -26 218 -44 662 -46 345
-2 365 1 554 64 292 97 544 320 683 604 144 295 164 657 53 970 -40 113 -63
157 -137 270 -98 148 -255 300 -370 359 -87 44 -62 4 102 -164 72 -74 155
-169 184 -210 370 -525 261 -1232 -248 -1609 -113 -84 -285 -159 -453 -198
-96 -22 -432 -20 -557 3 -491 91 -838 443 -938 952 -23 119 -23 339 1 450 70
331 243 594 506 770 74 49 243 133 251 124 4 -4 32 -71 63 -149 90 -228 202
-487 280 -645 l72 -146 -32 -26 c-72 -57 -96 -181 -51 -261 27 -48 102 -101
157 -110 215 -36 345 251 173 382 -28 22 -50 29 -100 33 l-64 5 -45 100 c-90
196 -138 314 -240 585 l-103 275 42 13 c211 63 583 52 762 -22 51 -22 43 -4
-18 38 -167 115 -468 135 -788 51 l-25 -6 -132 393 c-72 216 -145 447 -161
513 -27 109 -61 274 -61 296 0 5 39 38 88 74 123 93 149 151 96 214 -36 43
-89 43 -138 1 l-34 -31 -19 31 c-20 34 -87 76 -137 85 -24 5 -38 1 -56 -14
l-25 -20 28 -1 c75 -1 165 -85 138 -129 -7 -11 -10 -10 -15 6 -8 25 -48 44
-67 33 -11 -7 -9 -14 10 -34 22 -23 23 -28 11 -53 l-13 -28 -9 32 c-9 34 -41
63 -70 63 -22 0 -23 -13 -2 -31 14 -11 11 -14 -26 -24 -41 -9 -45 -8 -75 21
-62 58 -167 89 -215 64 -22 -12 -29 -7 -115 83 -99 102 -127 119 -153 93 -15
-15 -13 -20 28 -62 49 -50 162 -144 196 -162 11 -6 38 -8 61 -5 87 12 172 -39
198 -118 21 -61 14 -76 -9 -20 -17 45 -54 75 -80 65 -14 -5 -12 -11 14 -40 31
-36 39 -84 20 -114 -7 -11 -10 -7 -10 17 0 44 -43 93 -81 93 l-29 0 28 -49 27
-50 -21 -28 c-37 -49 -52 -42 -50 22 1 49 -2 59 -24 77 -19 15 -33 18 -62 14
-37 -6 -40 -4 -175 122 -76 71 -154 143 -173 160 l-35 31 29 30 c28 29 90 63
209 115 43 19 57 30 57 46 0 11 -6 23 -13 25 -17 7 -219 -83 -318 -141 -71
-41 -83 -45 -103 -35 -45 24 -190 290 -276 507 -188 471 -241 915 -123 1045
48 53 90 65 150 45 26 -9 52 -16 59 -16 16 0 104 -61 104 -72 0 -4 5 -8 10 -8
6 0 10 18 10 40 0 52 30 86 62 69 47 -25 169 -155 183 -194 l14 -40 -37 -30
c-79 -63 -122 -112 -122 -139 0 -38 20 -32 70 20 68 69 142 122 175 126 45 5
42 29 -12 89 -81 90 -78 82 -48 129 29 46 23 45 129 16 84 -23 201 -30 271
-17 133 24 268 118 321 223 28 55 54 161 54 222 0 26 11 57 34 95 53 87 54
102 11 150 -20 22 -60 56 -88 75 -29 20 -64 45 -79 57 -16 11 -28 17 -28 12 0
-6 19 -61 42 -124 41 -111 42 -118 42 -239 1 -117 -1 -129 -28 -188 -20 -43
-47 -80 -87 -116 -78 -72 -145 -98 -269 -103 -100 -4 -162 8 -298 58 -69 26
-89 20 -74 -22 12 -31 -5 -79 -26 -79 -10 0 -39 14 -65 31 l-48 30 29 37 c45
56 80 134 88 190 3 29 11 49 15 46 12 -7 79 15 79 26 0 5 -18 14 -40 20 -23 6
-45 20 -51 33 -19 34 -15 104 6 127 33 37 94 21 110 -29 15 -50 70 -20 111 60
20 40 26 69 30 151 3 56 7 104 9 107 3 2 35 3 72 2 39 -1 90 5 118 13 28 9 51
16 53 16 1 0 -8 -14 -20 -31 -22 -29 -22 -31 -5 -44 15 -11 25 -8 72 23 40 26
55 43 55 59 0 16 -6 23 -18 23 -14 0 -9 10 23 44 124 129 90 351 -80 521 -70
70 -138 107 -249 135 -90 23 -225 26 -297 6z m610 -340 c25 -69 35 -142 22
-181 -8 -25 -9 -16 -10 50 -1 59 -8 95 -25 137 -13 32 -20 55 -15 53 4 -3 17
-30 28 -59z m-1143 -74 c-22 -5 -30 3 -21 18 5 8 11 7 22 -2 15 -12 14 -13 -1
-16z m1017 -139 c-10 -20 -29 -43 -43 -52 l-25 -15 22 25 c27 30 52 89 55 126
1 20 2 18 5 -10 3 -24 -3 -51 -14 -74z m-502 -30 c-8 -14 -10 -6 -10 37 1 55
1 55 11 18 7 -25 6 -43 -1 -55z m-1467 22 c3 -8 1 -15 -4 -15 -6 0 -10 7 -10
15 0 8 2 15 4 15 2 0 6 -7 10 -15z m1330 -20 c-4 -8 -16 -15 -28 -15 -20 1
-20 1 4 15 31 18 30 18 24 0z m-663 -38 c-16 -16 -26 0 -10 19 9 11 15 12 17
4 2 -6 -1 -17 -7 -23z m-601 -97 c0 -13 -7 -20 -20 -20 -23 0 -26 10 -8 28 18
18 28 15 28 -8z m115 0 c3 -5 1 -10 -4 -10 -6 0 -11 5 -11 10 0 6 2 10 4 10 3
0 8 -4 11 -10z m2171 -276 c-8 -21 -11 -18 -32 32 l-16 39 28 -27 c18 -17 25
-32 20 -44z m-2017 30 c10 -9 -45 -3 -59 6 -11 7 -5 8 20 4 19 -4 37 -8 39
-10z m101 -178 c0 -11 -19 -15 -25 -6 -3 5 1 10 9 10 9 0 16 -2 16 -4z m770
-126 c-6 -11 -13 -20 -16 -20 -2 0 0 9 6 20 6 11 13 20 16 20 2 0 0 -9 -6 -20z
m-1411 -41 c45 -7 84 -22 130 -50 72 -43 146 -69 198 -69 35 0 113 -34 113
-49 0 -11 69 -55 76 -48 3 2 -2 20 -10 38 -8 19 -17 46 -21 61 -7 35 -50 58
-110 58 -70 0 -53 17 23 22 81 6 105 -3 96 -38 -8 -31 8 -50 49 -58 37 -7 114
-73 101 -86 -23 -21 -323 -231 -354 -247 -19 -10 -39 -23 -45 -30 -13 -15
-204 -134 -345 -215 -239 -136 -447 -227 -630 -275 -130 -34 -279 -36 -365 -5
-179 66 -205 239 -72 482 l52 95 65 -3 c58 -3 72 0 135 32 110 55 243 85 525
116 119 13 338 11 498 -5 81 -8 176 -17 212 -21 36 -3 83 -9 105 -14 47 -10
56 -6 29 15 -58 46 -203 70 -508 85 -292 14 -542 -3 -782 -55 -30 -7 -32 -5
-37 27 -2 18 -1 38 4 44 15 18 200 111 277 138 191 68 389 86 591 55z m1050
-53 c-2 -2 -26 -6 -53 -9 -30 -3 -43 -1 -35 4 13 8 97 13 88 5z m59 -174 c2
-14 -10 -41 -32 -70 -19 -27 -41 -69 -48 -95 -11 -44 -15 -48 -77 -75 -130
-58 -196 -73 -326 -75 -143 -1 -196 12 -187 46 3 12 47 65 98 117 51 53 98
109 104 125 l12 30 24 -47 c33 -65 66 -88 124 -88 52 0 96 24 165 90 73 70
137 89 143 42z m-123 -324 c-14 -72 -24 -85 -95 -117 -166 -77 -397 -82 -614
-14 l-89 28 77 51 77 51 57 -21 c49 -18 80 -21 232 -21 l175 0 85 36 c47 20
89 37 93 38 5 0 6 -14 2 -31z m1360 -1818 c-3 -5 -11 -10 -16 -10 -6 0 -7 5
-4 10 3 6 11 10 16 10 6 0 7 -4 4 -10z m-2555 -2140 c-17 -11 -15 -12 -24 25
l-7 30 23 -23 c19 -19 21 -24 8 -32z m3740 -122 c47 -32 74 -73 74 -111 0 -50
-10 -70 -32 -58 -12 6 -25 5 -42 -5 -34 -18 -60 -17 -95 4 -45 28 -61 63 -43
98 9 19 20 28 32 26 22 -4 36 14 36 46 0 15 6 22 19 22 10 0 33 -10 51 -22z
m-3196 -355 c14 -20 23 -39 21 -43 -2 -4 98 -6 223 -6 195 1 232 -1 265 -16
21 -10 37 -23 35 -30 -8 -24 -238 -103 -387 -133 -43 -9 -104 -15 -137 -13
l-59 3 -77 115 c-43 63 -78 118 -78 121 0 4 27 10 61 13 33 4 70 11 82 16 12
5 23 9 24 9 1 1 13 -16 27 -36z"/>
<path d="M7315 7990 c-10 -16 4 -48 32 -70 35 -27 108 -28 123 -1 13 24 -2 36
-42 33 -19 -2 -37 6 -54 23 -26 26 -49 32 -59 15z"/>
<path d="M7333 7624 c-10 -26 15 -64 53 -80 47 -20 69 -15 69 15 0 19 -7 26
-29 32 -15 4 -35 17 -43 28 -17 25 -41 27 -50 5z"/>
<path d="M6599 6663 c-7 -17 -8 -56 -4 -98 8 -91 43 -271 59 -310 21 -50 278
-317 334 -348 27 -15 53 -27 56 -27 14 0 -35 62 -164 208 -74 85 -143 163
-152 175 -22 29 -66 228 -74 340 -6 76 -9 87 -26 87 -11 0 -23 -11 -29 -27z"/>
<path d="M6919 6669 c-14 -27 -28 -177 -29 -304 0 -84 3 -106 21 -135 11 -19
92 -105 178 -190 86 -85 160 -163 163 -172 5 -12 -3 -20 -33 -32 -27 -11 -39
-22 -39 -36 0 -12 7 -20 18 -20 9 0 62 -47 117 -105 81 -85 105 -105 128 -105
29 0 29 0 10 24 -10 13 -38 49 -62 81 -24 32 -60 75 -78 96 l-34 38 35 6 c19
4 40 13 46 21 13 14 4 54 -11 54 -31 0 -337 289 -381 360 -24 38 -29 103 -18
248 12 169 1 230 -31 171z"/>
<path d="M6075 6421 c-131 -48 -298 -172 -485 -360 -252 -254 -401 -415 -396
-428 9 -22 51 -15 87 15 19 15 102 101 185 192 231 253 352 363 518 475 79 53
147 103 150 111 7 18 2 17 -59 -5z"/>
<path d="M6059 6277 c-14 -11 -71 -87 -209 -282 -31 -44 -81 -118 -110 -165
-56 -90 -176 -230 -198 -230 -7 0 -29 -7 -50 -16 -36 -16 -37 -17 -12 -24 41
-13 145 -11 162 3 9 6 40 52 68 101 51 89 101 161 85 121 -32 -78 -56 -162
-53 -188 3 -29 7 -24 46 58 48 100 102 195 208 365 114 184 132 228 102 258
-15 15 -19 15 -39 -1z"/>
<path d="M6745 5897 c-72 -31 -125 -66 -125 -83 0 -22 28 -28 48 -11 9 8 42
23 72 33 68 21 80 30 80 60 0 29 -10 29 -75 1z"/>
<path d="M4908 5561 c-75 -48 -188 -160 -188 -187 0 -42 49 -156 132 -304 96
-173 106 -186 167 -225 86 -55 251 -180 251 -191 0 -5 -16 -26 -35 -44 -52
-51 -109 -136 -102 -154 4 -9 17 -16 29 -16 13 0 203 31 423 69 220 39 412 67
426 64 57 -11 159 131 159 222 0 98 -150 233 -510 457 -74 47 -180 113 -235
148 -166 105 -360 190 -435 190 -23 0 -53 -11 -82 -29z"/>
<path d="M7380 4800 c-299 -76 -1256 -256 -1618 -304 -345 -47 -489 -73 -531
-97 -46 -26 -45 -39 4 -39 19 0 37 -5 40 -11 10 -15 104 -4 495 57 715 112
1738 315 1786 355 13 10 12 15 -7 36 -27 28 -64 29 -169 3z"/>
<path d="M5830 4371 c-8 -4 -67 -16 -130 -25 -127 -19 -374 -63 -404 -72 -14
-5 -17 -12 -12 -38 14 -69 188 -396 211 -396 10 0 65 67 292 358 29 37 62 85
74 108 31 57 15 90 -31 65z"/>
<path d="M3065 4075 c-194 -36 -401 -120 -562 -228 -489 -329 -672 -1015 -424
-1587 80 -183 222 -363 381 -482 97 -72 169 -112 286 -158 l94 -37 -120 -6
c-120 -6 -165 -16 -140 -32 52 -32 838 -25 995 9 97 22 219 63 290 98 180 90
360 246 465 402 53 80 133 238 145 289 5 19 12 26 24 23 192 -53 293 -79 371
-96 100 -21 230 -27 230 -10 0 8 -122 50 -146 50 -10 0 -299 76 -395 104 l-56
17 14 77 c8 42 16 87 19 99 4 21 9 21 171 25 147 3 173 6 207 24 57 31 33 39
-119 40 -71 1 -158 2 -192 3 l-63 1 0 64 c0 76 0 76 108 77 83 1 163 17 169
35 5 14 -74 24 -193 24 l-91 0 -7 54 c-29 247 -235 612 -425 751 -22 17 -41
32 -41 35 0 3 20 32 45 65 48 64 79 122 90 170 l7 30 -26 -24 -25 -23 11 36
c6 20 8 39 5 43 -10 10 -37 -18 -123 -128 -72 -91 -82 -100 -106 -95 -26 5
-27 4 -17 -18 12 -25 10 -28 -266 -361 -113 -135 -218 -270 -274 -351 l-43
-62 -84 -4 c-73 -4 -90 -8 -126 -34 -112 -79 -120 -252 -16 -334 89 -69 213
-66 292 8 69 65 86 177 40 262 l-26 48 43 59 c52 71 446 548 509 616 l45 48
77 -78 c95 -98 124 -132 177 -209 81 -120 163 -323 186 -461 l7 -43 -464 0
c-254 0 -473 -3 -485 -6 -29 -8 -38 -34 -18 -53 14 -14 72 -16 495 -15 l480 1
0 -64 0 -65 -297 7 c-197 5 -346 3 -438 -4 -171 -14 -215 -25 -215 -51 0 -28
29 -40 170 -71 69 -15 238 -59 375 -97 138 -39 272 -76 298 -83 45 -11 48 -13
42 -38 -4 -14 -24 -63 -45 -109 -155 -332 -446 -556 -819 -632 -135 -27 -374
-28 -533 -1 -323 56 -584 219 -761 478 -215 316 -272 743 -145 1101 142 404
442 669 888 784 237 62 555 46 755 -37 18 -8 19 -7 5 10 -27 33 -103 75 -185
102 -71 23 -99 26 -250 29 -119 2 -194 -1 -250 -11z m248 -1187 c3 -10 11 -10
34 -2 28 10 32 9 42 -13 16 -35 14 -89 -5 -125 l-16 -32 -20 27 c-15 20 -28
27 -54 27 -40 0 -67 33 -62 77 4 38 70 72 81 41z m1152 -275 c-2 -10 -9 -48
-16 -86 -6 -37 -14 -69 -18 -71 -3 -3 -137 33 -296 79 -160 45 -299 85 -310
88 -11 2 129 5 312 6 310 1 331 0 328 -16z"/>
<path d="M5853 3332 c-8 -5 -5 -27 13 -81 34 -104 32 -121 -9 -121 -18 0 -58
-7 -88 -16 -163 -49 -271 -150 -293 -276 -8 -47 7 -50 25 -6 20 48 128 151
190 181 152 74 315 75 457 3 167 -85 279 -370 217 -555 -69 -208 -302 -347
-528 -314 -43 6 -106 25 -154 47 -93 42 -103 43 -103 16 0 -51 108 -112 233
-132 332 -51 637 189 637 501 0 99 -20 175 -72 280 -74 149 -181 231 -342 263
l-69 14 -28 88 c-36 112 -51 130 -86 108z"/>
<path d="M1015 2319 c-82 -4 -169 -11 -193 -17 -146 -34 9 -52 388 -44 158 3
213 14 208 40 -6 31 -100 36 -403 21z"/>
<path d="M1588 2095 c-2 -2 -103 -6 -223 -9 -312 -8 -397 -18 -338 -40 79 -31
652 -31 751 -1 55 17 67 32 30 39 -31 6 -215 15 -220 11z"/>
<path d="M850 1840 c-99 -13 -131 -21 -127 -33 7 -22 67 -27 357 -28 291 -1
385 4 396 23 10 16 -3 21 -84 34 -82 14 -447 17 -542 4z"/>
<path d="M5705 1614 c-11 -3 -31 -7 -45 -10 -53 -12 12 -25 188 -41 163 -14
321 -12 380 3 26 7 29 29 5 40 -19 8 -495 16 -528 8z"/>
</g>
</svg>
