<svg width="1202" height="982" viewBox="0 0 1202 982" fill="none" xmlns="http://www.w3.org/2000/svg">
<path d="M805.199 2.53333C787.199 7.33331 773.332 22.4 773.332 37.0667C773.332 42.4 772.932 43.3333 770.666 43.3333C768.132 43.3333 764.266 40.2667 748.799 25.7333C738.799 16.2667 734.799 14.6666 720.666 14.6666C703.199 14.6666 696.799 18.8 684.266 37.6C675.199 51.0667 666.266 56.6666 653.999 56.6666C651.066 56.6666 643.599 54.2667 635.466 50.8C627.999 47.4667 619.066 44.1333 615.599 43.2C603.199 40.1333 590.932 44.2667 585.199 53.4667C582.666 57.7333 582.399 59.4667 583.199 69.2C584.132 82 583.332 83.3333 575.332 83.3333C567.999 83.3333 558.666 88.2667 555.466 93.8666C551.999 99.8666 551.999 109.467 555.466 115.467C557.466 118.8 560.932 121.467 569.332 125.6C586.266 134.267 585.999 133.733 585.999 153.333V169.733L581.999 168.933C579.866 168.4 567.199 168 553.999 168C532.399 168.133 528.532 168.4 515.599 171.733C476.266 181.6 440.532 204.133 423.066 230C408.399 251.867 401.866 277.467 406.932 294.267C413.199 315.2 444.666 325.6 478.399 317.867L485.466 316.133L490.666 321.333L495.999 326.533L486.799 328.8C463.066 334.8 429.199 359.333 414.399 381.2C399.732 402.533 394.132 436.933 399.466 472.267C405.332 511.867 427.866 574.8 455.199 628C473.999 664.4 509.732 725.333 536.799 767.067C546.266 781.467 546.799 782 551.332 782C555.332 782 555.999 782.4 555.999 785.2C555.999 786.933 559.732 794.533 564.399 802.133C569.066 809.733 578.266 824.933 584.932 836C602.666 865.067 610.799 876.933 615.466 880C619.199 882.533 619.466 883.067 617.866 885.333C616.799 886.667 615.999 888.267 615.999 888.933C615.999 890.667 621.732 890.133 627.866 888C635.199 885.467 669.999 877.467 689.332 874C713.599 869.6 717.199 868 714.399 862.933C713.466 861.067 712.266 860.667 709.866 861.2C708.132 861.6 705.066 862.4 703.199 862.8L699.732 863.733L703.199 860.267C707.199 856.267 707.599 852 704.399 848.133C701.999 845.333 701.999 845.333 704.799 847.733C708.266 850.533 711.466 850.667 712.532 847.867C712.932 846.667 713.332 842.133 713.332 837.733C713.332 827.333 709.332 820 701.066 815.333C690.799 809.467 674.399 811.733 666.666 820C664.266 822.533 663.866 824 664.666 828.4C665.599 834 668.399 836.4 671.332 834C672.399 833.067 673.466 833.067 673.866 833.733C674.266 834.4 676.266 835.333 678.266 835.733C680.399 836.133 683.066 837.333 684.399 838.267C686.399 839.733 683.466 840 666.399 840C655.199 840 643.466 840.4 640.532 840.933C635.199 842 634.932 841.867 631.599 836.8C629.732 834 623.066 821.467 616.799 808.933C606.666 788.8 601.999 782 598.399 782C596.132 782 597.732 786.267 607.199 806.8C617.599 829.2 617.866 830.8 610.666 831.467C600.666 832.4 598.266 831.467 591.466 824.267C584.532 817.2 572.799 796 571.199 787.867C569.866 781.2 574.799 777.067 600.666 763.333C629.732 747.867 641.199 740.267 644.666 733.733C647.332 728.8 647.332 728.667 644.799 719.733C640.799 705.067 640.666 705.333 650.266 704.933L658.532 704.533L660.932 709.6L663.332 714.667L680.132 714.133C702.532 713.467 715.866 717.2 712.266 722.933C711.732 723.733 702.399 726 691.466 727.867C670.799 731.333 665.332 733.6 665.332 738.133C665.332 740.533 665.866 740.8 669.732 740.133C673.732 739.467 698.932 735.733 721.066 732.667C732.399 731.067 738.666 728.267 738.666 724.8C738.666 720.267 735.599 719.067 729.466 721.333C724.399 723.067 723.999 723.067 723.999 720.933C723.999 717.067 720.399 713.2 713.732 709.867C708.266 707.333 705.199 706.8 693.332 706.8C685.599 706.667 676.666 706.933 673.466 707.333L667.466 708L663.999 698C657.999 681.2 651.999 670.8 649.732 673.2C648.932 673.867 651.599 683.333 654.266 689.6C654.932 691.333 644.799 696.533 639.866 697.067C637.999 697.333 633.466 689.333 619.599 661.333C609.866 641.467 589.732 602.533 574.932 574.667C547.732 523.067 529.999 486.133 525.999 472.267C523.866 464.8 523.866 464.4 526.666 458.667C530.266 451.2 537.999 444.8 557.199 433.6L572.399 424.667L576.932 430C581.999 435.867 584.666 436.667 585.999 432.667C587.066 429.467 587.332 430 574.666 413.333C569.199 406 558.799 391.867 551.732 382C534.799 358.4 508.932 327.467 500.932 321.067C496.132 317.2 495.199 315.867 496.932 315.467C498.266 315.2 503.866 313.2 509.332 311.067C517.332 307.867 519.466 307.467 520.666 308.933C521.332 309.867 524.532 312.4 527.732 314.4C539.199 321.867 553.866 338.667 567.332 359.6C578.799 377.333 580.532 373.733 570.532 353.467C561.466 335.2 541.999 312.533 530.266 306.4L525.999 304.267L533.999 300.667C538.399 298.667 550.132 292.533 559.999 287.067C569.866 281.467 582.399 274.8 587.732 272.133C596.666 267.6 597.599 267.467 601.066 269.2C609.332 273.333 630.932 279.2 643.999 280.667C662.132 282.8 677.866 281.733 691.332 277.467C703.866 273.467 705.466 273.333 710.666 276C716.132 278.8 717.599 282.267 723.866 307.467C729.732 331.6 735.866 350.133 744.266 370C756.266 398.267 772.132 426 780.666 433.733L785.466 438.133L789.999 435.467L794.532 432.8L818.532 456.8C831.599 469.867 843.199 480.667 844.132 480.667C845.066 480.667 844.399 482.267 842.399 484.267C837.466 489.467 836.532 494.133 839.732 498C842.266 501.067 843.332 501.333 857.332 501.6C867.066 501.733 874.399 501.2 878.399 499.867C881.866 498.933 889.332 498 895.066 498C905.332 498 905.332 498 907.999 502.267C909.466 504.667 914.932 517.333 920.132 530.533C927.866 549.733 929.332 554.533 927.866 555.467C923.599 557.867 920.932 560.8 908.532 576.667C901.466 585.867 879.866 611.867 860.799 634.667C841.599 657.333 820.799 682.267 814.532 690C808.132 697.733 798.666 708.8 793.332 714.667C777.066 732.533 757.332 756.4 753.866 762.4C750.799 767.867 749.599 774 751.732 774C753.066 774 766.532 760 777.466 747.333C782.132 741.867 795.332 726.8 806.666 714C825.066 693.067 843.066 672.133 883.866 624.133C896.266 609.6 924.666 574.133 930.132 566.667L932.932 562.667L937.199 574C939.599 580.267 947.199 599.6 954.132 616.933C961.066 634.267 966.666 648.8 966.666 649.067C966.666 649.467 960.532 652.667 953.066 656.4C903.066 680.8 870.132 724.667 860.799 779.2C857.999 795.467 857.999 825.467 860.799 841.333C863.199 855.6 870.132 877.067 876.132 888.933C891.866 920.4 918.666 946.933 949.866 962.133L963.332 968.533L957.332 968.667C950.132 968.667 933.599 971.067 931.732 972.267C925.999 975.733 960.799 978.133 1020 978.4C1066 978.667 1068.67 978.267 1093.87 969.867C1132.8 956.933 1166.4 927.2 1184.93 889.333C1204.13 850 1206.8 801.733 1192 760C1186.67 744.933 1183.6 739.067 1173.73 724C1160.67 704.267 1139.73 684 1124.4 676.133C1112.8 670.267 1116.13 675.6 1138 698C1147.6 707.867 1158.67 720.533 1162.53 726C1211.87 796 1197.33 890.267 1129.47 940.533C1114.4 951.733 1091.47 961.733 1069.07 966.933C1056.27 969.867 1011.47 969.6 994.799 966.533C929.332 954.4 883.066 907.467 869.732 839.6C866.666 823.733 866.666 794.4 869.866 779.6C879.199 735.467 902.266 700.4 937.332 676.933C947.199 670.4 969.732 659.2 970.799 660.4C971.332 660.933 975.066 669.867 979.199 680.267C991.199 710.667 1006.13 745.2 1016.53 766.267L1026.13 785.733L1021.87 789.2C1012.27 796.8 1009.07 813.333 1015.07 824C1018.67 830.4 1028.67 837.467 1036 838.667C1064.67 843.467 1082 805.2 1059.07 787.733C1055.33 784.8 1052.4 783.867 1045.73 783.333L1037.2 782.667L1031.2 769.333C1019.2 743.2 1012.8 727.467 999.199 691.333L985.466 654.667L991.066 652.933C1019.2 644.533 1068.8 646 1092.67 655.867C1099.47 658.8 1098.4 656.4 1090.27 650.8C1068 635.467 1027.87 632.8 985.199 644L981.866 644.8L964.266 592.4C954.666 563.6 944.932 532.8 942.799 524C939.199 509.467 934.666 487.467 934.666 484.533C934.666 483.867 939.866 479.467 946.399 474.667C962.799 462.267 966.266 454.533 959.199 446.133C954.399 440.4 947.332 440.4 940.799 446L936.266 450.133L933.732 446C931.066 441.467 922.132 435.867 915.466 434.667C912.266 434 910.399 434.533 907.999 436.533L904.666 439.2L908.399 439.333C918.399 439.467 930.399 450.667 926.799 456.533C925.866 458 925.466 457.867 924.799 455.733C923.732 452.4 918.399 449.867 915.866 451.333C914.399 452.267 914.666 453.2 917.199 455.867C920.132 458.933 920.266 459.6 918.666 462.933L916.932 466.667L915.732 462.4C914.532 457.867 910.266 454 906.399 454C903.466 454 903.332 455.733 906.132 458.133C907.999 459.6 907.599 460 902.666 461.333C897.199 462.533 896.666 462.4 892.666 458.533C884.399 450.8 870.399 446.667 863.999 450C861.066 451.6 860.132 450.933 848.666 438.933C835.466 425.333 831.732 423.067 828.266 426.533C826.266 428.533 826.532 429.2 831.999 434.8C838.532 441.467 853.599 454 858.132 456.4C859.599 457.2 863.199 457.467 866.266 457.067C877.866 455.467 889.199 462.267 892.666 472.8C895.466 480.933 894.532 482.933 891.466 475.467C889.199 469.467 884.266 465.467 880.799 466.8C878.932 467.467 879.199 468.267 882.666 472.133C886.799 476.933 887.866 483.333 885.332 487.333C884.399 488.8 883.999 488.267 883.999 485.067C883.999 479.2 878.266 472.667 873.199 472.667H869.332L873.066 479.2L876.666 485.867L873.866 489.6C868.932 496.133 866.932 495.2 867.199 486.667C867.332 480.133 866.932 478.8 863.999 476.4C861.466 474.4 859.599 474 855.732 474.533C850.799 475.333 850.399 475.067 832.399 458.267C822.266 448.8 811.866 439.2 809.332 436.933L804.666 432.8L808.532 428.8C812.266 424.933 820.532 420.4 836.399 413.467C842.132 410.933 843.999 409.467 843.999 407.333C843.999 405.867 843.199 404.267 842.266 404C839.999 403.067 813.066 415.067 799.866 422.8C790.399 428.267 788.799 428.8 786.132 427.467C780.132 424.267 760.799 388.8 749.332 359.867C724.266 297.067 717.199 237.867 732.932 220.533C739.332 213.467 744.932 211.867 752.932 214.533C756.399 215.733 759.866 216.667 760.799 216.667C762.932 216.667 774.666 224.8 774.666 226.267C774.666 226.8 775.332 227.333 775.999 227.333C776.799 227.333 777.332 224.933 777.332 222C777.332 215.067 781.332 210.533 785.599 212.8C791.866 216.133 808.132 233.467 809.999 238.667L811.866 244L806.932 248C796.399 256.4 790.666 262.933 790.666 266.533C790.666 271.6 793.332 270.8 799.999 263.867C809.066 254.667 818.932 247.6 823.332 247.067C829.332 246.4 828.932 243.2 821.732 235.2C810.932 223.2 811.332 224.267 815.332 218C819.199 211.867 818.399 212 832.532 215.867C843.732 218.933 859.332 219.867 868.666 218.133C886.399 214.933 904.399 202.4 911.466 188.4C915.199 181.067 918.666 166.933 918.666 158.8C918.666 155.333 920.132 151.2 923.199 146.133C930.266 134.533 930.399 132.533 924.666 126.133C921.999 123.2 916.666 118.667 912.932 116.133C909.066 113.467 904.399 110.133 902.399 108.533C900.266 107.067 898.666 106.267 898.666 106.933C898.666 107.733 901.199 115.067 904.266 123.467C909.732 138.267 909.866 139.2 909.866 155.333C909.999 170.933 909.732 172.533 906.132 180.4C903.466 186.133 899.866 191.067 894.532 195.867C884.132 205.467 875.199 208.933 858.666 209.6C845.332 210.133 837.066 208.533 818.932 201.867C809.732 198.4 807.066 199.2 809.066 204.8C810.666 208.933 808.399 215.333 805.599 215.333C804.266 215.333 800.399 213.467 796.932 211.2L790.532 207.2L794.399 202.267C800.399 194.8 805.066 184.4 806.132 176.933C806.532 173.067 807.599 170.4 808.132 170.8C809.732 171.733 818.666 168.8 818.666 167.333C818.666 166.667 816.266 165.467 813.332 164.667C810.266 163.867 807.332 162 806.532 160.267C803.999 155.733 804.532 146.4 807.332 143.333C811.732 138.4 819.866 140.533 821.999 147.2C823.999 153.867 831.332 149.867 836.799 139.2C839.466 133.867 840.266 130 840.799 119.067C841.199 111.6 841.732 105.2 841.999 104.8C842.399 104.533 846.666 104.4 851.599 104.533C856.799 104.667 863.599 103.867 867.332 102.8C871.066 101.6 874.132 100.667 874.399 100.667C874.532 100.667 873.332 102.533 871.732 104.8C868.799 108.667 868.799 108.933 871.066 110.667C873.066 112.133 874.399 111.733 880.666 107.6C885.999 104.133 887.999 101.867 887.999 99.7333C887.999 97.6 887.199 96.6666 885.599 96.6666C883.732 96.6666 884.399 95.3333 888.666 90.8C905.199 73.6 900.666 44 877.999 21.3333C868.666 12 859.599 7.06665 844.799 3.33331C832.799 0.266663 814.799 -0.133362 805.199 2.53333ZM886.532 47.8666C889.866 57.0667 891.199 66.8 889.466 72C888.399 75.3333 888.266 74.1333 888.132 65.3333C887.999 57.4667 887.066 52.6666 884.799 47.0667C883.066 42.8 882.132 39.7333 882.799 40C883.332 40.4 885.066 44 886.532 47.8666ZM734.132 57.7333C731.199 58.4 730.132 57.3333 731.332 55.3333C731.999 54.2667 732.799 54.4 734.266 55.6C736.266 57.2 736.132 57.3333 734.132 57.7333ZM869.732 76.2667C868.399 78.9333 865.866 82 863.999 83.2L860.666 85.2L863.599 81.8666C867.199 77.8666 870.532 70 870.932 65.0667C871.066 62.4 871.199 62.6666 871.599 66.4C871.999 69.6 871.199 73.2 869.732 76.2667ZM802.799 80.2667C801.732 82.1333 801.466 81.0667 801.466 75.3333C801.599 68 801.599 68 802.932 72.9333C803.866 76.2667 803.732 78.6666 802.799 80.2667ZM607.199 77.3333C607.599 78.4 607.332 79.3333 606.666 79.3333C605.866 79.3333 605.332 78.4 605.332 77.3333C605.332 76.2667 605.599 75.3333 605.866 75.3333C606.132 75.3333 606.666 76.2667 607.199 77.3333ZM784.532 80C783.999 81.0667 782.399 82 780.799 82C778.132 81.8666 778.132 81.8666 781.332 80C785.466 77.6 785.332 77.6 784.532 80ZM696.132 85.0667C693.999 87.2 692.666 85.0667 694.799 82.5333C695.999 81.0667 696.799 80.9333 697.066 82C697.332 82.8 696.932 84.2667 696.132 85.0667ZM615.999 98C615.999 99.7333 615.066 100.667 613.332 100.667C610.266 100.667 609.866 99.3333 612.266 96.9333C614.666 94.5333 615.999 94.9333 615.999 98ZM631.332 98C631.732 98.6666 631.466 99.3333 630.799 99.3333C629.999 99.3333 629.332 98.6666 629.332 98C629.332 97.2 629.599 96.6666 629.866 96.6666C630.266 96.6666 630.932 97.2 631.332 98ZM920.799 134.8C919.732 137.6 919.332 137.2 916.532 130.533L914.399 125.333L918.132 128.933C920.532 131.2 921.466 133.2 920.799 134.8ZM651.866 130.8C653.199 132 645.866 131.2 643.999 130C642.532 129.067 643.332 128.933 646.666 129.467C649.199 130 651.599 130.533 651.866 130.8ZM665.332 154.533C665.332 156 662.799 156.533 661.999 155.333C661.599 154.667 662.132 154 663.199 154C664.399 154 665.332 154.267 665.332 154.533ZM767.999 171.333C767.199 172.8 766.266 174 765.866 174C765.599 174 765.866 172.8 766.666 171.333C767.466 169.867 768.399 168.667 768.799 168.667C769.066 168.667 768.799 169.867 767.999 171.333ZM579.866 176.8C585.866 177.733 591.066 179.733 597.199 183.467C606.799 189.2 616.666 192.667 623.599 192.667C628.266 192.667 638.666 197.2 638.666 199.2C638.666 200.667 647.866 206.533 648.799 205.6C649.199 205.333 648.532 202.933 647.466 200.533C646.399 198 645.199 194.4 644.666 192.4C643.732 187.733 637.999 184.667 629.999 184.667C620.666 184.667 622.932 182.4 633.066 181.733C643.866 180.933 647.066 182.133 645.866 186.8C644.799 190.933 646.932 193.467 652.399 194.533C657.332 195.467 667.599 204.267 665.866 206C662.799 208.8 622.799 236.8 618.666 238.933C616.132 240.267 613.466 242 612.666 242.933C610.932 244.933 585.466 260.8 566.666 271.6C534.799 289.733 507.066 301.867 482.666 308.267C465.332 312.8 445.466 313.067 433.999 308.933C410.132 300.133 406.666 277.067 424.399 244.667L431.332 232L439.999 232.4C447.732 232.8 449.599 232.4 457.999 228.133C472.666 220.8 490.399 216.8 527.999 212.667C543.866 210.933 573.066 211.2 594.399 213.333C605.199 214.4 617.866 215.6 622.666 216.133C627.466 216.533 633.732 217.333 636.666 218C642.932 219.333 644.132 218.8 640.532 216C632.799 209.867 613.466 206.667 572.799 204.667C533.866 202.8 500.532 205.067 468.532 212C464.532 212.933 464.266 212.667 463.599 208.4C463.332 206 463.466 203.333 464.132 202.533C466.132 200.133 490.799 187.733 501.066 184.133C526.532 175.067 552.932 172.667 579.866 176.8ZM719.866 183.867C719.599 184.133 716.399 184.667 712.799 185.067C708.799 185.467 707.066 185.2 708.132 184.533C709.866 183.467 721.066 182.8 719.866 183.867ZM727.732 207.067C727.999 208.933 726.399 212.533 723.466 216.4C720.932 220 717.999 225.6 717.066 229.067C715.599 234.933 715.066 235.467 706.799 239.067C689.466 246.8 680.666 248.8 663.332 249.067C644.266 249.2 637.199 247.467 638.399 242.933C638.799 241.333 644.666 234.267 651.466 227.333C658.266 220.267 664.532 212.8 665.332 210.667L666.932 206.667L670.132 212.933C674.532 221.6 678.932 224.667 686.666 224.667C693.599 224.667 699.466 221.467 708.666 212.667C718.399 203.333 726.932 200.8 727.732 207.067ZM711.332 250.267C709.466 259.867 708.132 261.6 698.666 265.867C676.532 276.133 645.732 276.8 616.799 267.733L604.932 264L615.199 257.2L625.466 250.4L633.066 253.2C639.599 255.6 643.732 256 663.999 256H687.332L698.666 251.2C704.932 248.533 710.532 246.267 711.066 246.133C711.732 246.133 711.866 248 711.332 250.267ZM892.666 492.667C892.266 493.333 891.199 494 890.532 494C889.732 494 889.599 493.333 889.999 492.667C890.399 491.867 891.466 491.333 892.132 491.333C892.932 491.333 893.066 491.867 892.666 492.667ZM551.999 778C549.732 779.467 549.999 779.6 548.799 774.667L547.866 770.667L550.932 773.733C553.466 776.267 553.732 776.933 551.999 778ZM1050.67 794.267C1056.93 798.533 1060.53 804 1060.53 809.067C1060.53 815.733 1059.2 818.4 1056.27 816.8C1054.67 816 1052.93 816.133 1050.67 817.467C1046.13 819.867 1042.67 819.733 1038 816.933C1032 813.2 1029.87 808.533 1032.27 803.867C1033.47 801.333 1034.93 800.133 1036.53 800.4C1039.47 800.933 1041.33 798.533 1041.33 794.267C1041.33 792.267 1042.13 791.333 1043.87 791.333C1045.2 791.333 1048.27 792.667 1050.67 794.267ZM624.532 841.6C626.399 844.267 627.599 846.8 627.332 847.333C627.066 847.867 640.399 848.133 657.066 848.133C683.066 848 687.999 848.267 692.399 850.267C695.199 851.6 697.332 853.333 697.066 854.267C695.999 857.467 665.332 868 645.466 872C639.732 873.2 631.599 874 627.199 873.733L619.332 873.333L609.066 858C603.332 849.6 598.666 842.267 598.666 841.867C598.666 841.333 602.266 840.533 606.799 840.133C611.199 839.6 616.132 838.667 617.732 838C619.332 837.333 620.799 836.8 620.932 836.8C621.066 836.667 622.666 838.933 624.532 841.6Z" fill="#DDE5EF"/>
<path d="M879.332 119.334C877.999 121.467 879.865 125.734 883.599 128.667C888.265 132.267 897.999 132.4 899.999 128.8C901.732 125.6 899.732 124 894.399 124.4C891.865 124.667 889.465 123.6 887.199 121.334C883.732 117.867 880.665 117.067 879.332 119.334Z" fill="#DDE5EF"/>
<path d="M881.732 168.134C880.399 171.6 883.732 176.667 888.799 178.8C895.066 181.467 897.999 180.8 897.999 176.8C897.999 174.267 897.066 173.334 894.132 172.534C892.132 172 889.466 170.267 888.399 168.8C886.132 165.467 882.932 165.2 881.732 168.134Z" fill="#DDE5EF"/>
<path d="M783.867 296.267C782.933 298.534 782.8 303.734 783.333 309.334C784.4 321.467 789.067 345.467 791.2 350.667C794 357.334 828.267 392.934 835.733 397.067C839.333 399.067 842.8 400.667 843.2 400.667C845.067 400.667 838.533 392.4 821.333 372.934C811.467 361.6 802.267 351.2 801.067 349.6C798.133 345.734 792.267 319.2 791.2 304.267C790.4 294.134 790 292.667 787.733 292.667C786.267 292.667 784.667 294.134 783.867 296.267Z" fill="#DDE5EF"/>
<path d="M826.533 295.467C824.666 299.067 822.799 319.067 822.666 336C822.666 347.2 823.066 350.133 825.466 354C826.933 356.533 837.733 368 849.199 379.333C860.666 390.667 870.533 401.067 870.933 402.267C871.599 403.867 870.533 404.933 866.533 406.533C862.933 408 861.333 409.467 861.333 411.333C861.333 412.933 862.266 414 863.733 414C864.933 414 871.999 420.267 879.333 428C890.133 439.333 893.333 442 896.399 442C900.266 442 900.266 442 897.733 438.8C896.399 437.067 892.666 432.267 889.466 428C886.266 423.733 881.466 418 879.066 415.2L874.533 410.133L879.199 409.333C881.733 408.8 884.533 407.6 885.333 406.533C887.066 404.667 885.866 399.333 883.866 399.333C879.733 399.333 838.933 360.8 833.066 351.333C829.866 346.267 829.199 337.6 830.666 318.267C832.266 295.733 830.799 287.6 826.533 295.467Z" fill="#DDE5EF"/>
<path d="M713.999 328.533C696.532 334.933 674.265 351.467 649.332 376.533C615.732 410.4 595.865 431.867 596.532 433.6C597.732 436.533 603.332 435.6 608.132 431.6C610.665 429.6 621.732 418.133 632.799 406C663.599 372.267 679.732 357.6 701.865 342.667C712.399 335.6 721.465 328.933 721.865 327.867C722.799 325.467 722.132 325.6 713.999 328.533Z" fill="#DDE5EF"/>
<path d="M711.866 347.734C709.999 349.2 702.399 359.334 683.999 385.334C679.866 391.2 673.199 401.067 669.332 407.334C661.866 419.334 645.866 438 642.932 438C641.999 438 639.066 438.934 636.266 440.134C631.466 442.267 631.332 442.4 634.666 443.334C640.132 445.067 653.999 444.8 656.266 442.934C657.466 442.134 661.599 436 665.332 429.467C672.132 417.6 678.799 408 676.666 413.334C672.399 423.734 669.199 434.934 669.599 438.4C669.999 442.267 670.532 441.6 675.732 430.667C682.132 417.334 689.332 404.667 703.466 382C718.666 357.467 721.066 351.6 717.066 347.6C715.066 345.6 714.532 345.6 711.866 347.734Z" fill="#DDE5EF"/>
<path d="M803.333 398.4C793.733 402.534 786.666 407.2 786.666 409.467C786.666 412.4 790.399 413.2 793.066 410.934C794.266 409.867 798.666 407.867 802.666 406.534C811.733 403.734 813.333 402.534 813.333 398.534C813.333 394.667 811.999 394.667 803.333 398.4Z" fill="#DDE5EF"/>
<path d="M558.399 443.2C548.399 449.6 533.332 464.534 533.332 468.134C533.332 473.734 539.865 488.934 550.932 508.667C563.732 531.734 565.065 533.467 573.199 538.667C584.665 546 606.665 562.667 606.665 564.134C606.665 564.8 604.532 567.6 601.999 570C595.065 576.8 587.465 588.134 588.399 590.534C588.932 591.734 590.665 592.667 592.265 592.667C593.999 592.667 619.332 588.534 648.665 583.467C677.999 578.267 703.599 574.534 705.465 574.934C713.065 576.4 726.665 557.467 726.665 545.334C726.665 532.267 706.665 514.267 658.665 484.4C648.799 478.134 634.665 469.334 627.332 464.667C605.199 450.667 579.332 439.334 569.332 439.334C566.265 439.334 562.265 440.8 558.399 443.2Z" fill="#DDE5EF"/>
<path d="M887.998 544.667C848.132 554.8 720.532 578.8 672.265 585.2C626.265 591.467 607.065 594.934 601.465 598.134C595.332 601.6 595.465 603.334 601.998 603.334C604.532 603.334 606.932 604 607.332 604.8C608.665 606.8 621.198 605.334 673.332 597.2C768.665 582.267 905.065 555.2 911.465 549.867C913.198 548.534 913.065 547.867 910.532 545.067C906.932 541.334 901.998 541.2 887.998 544.667Z" fill="#DDE5EF"/>
<path d="M681.332 601.867C680.265 602.4 672.398 604 663.998 605.2C647.065 607.734 614.132 613.6 610.132 614.8C608.265 615.467 607.865 616.4 608.532 619.867C610.398 629.067 633.598 672.667 636.665 672.667C637.998 672.667 645.332 663.734 675.598 624.934C679.465 620 683.865 613.6 685.465 610.534C689.598 602.934 687.465 598.534 681.332 601.867Z" fill="#DDE5EF"/>
<path d="M312.667 641.334C286.8 646.134 259.2 657.334 237.733 671.734C172.533 715.6 148.133 807.067 181.2 883.334C191.867 907.734 210.8 931.734 232 947.6C244.933 957.2 254.533 962.534 270.133 968.667L282.667 973.6L266.667 974.4C250.667 975.2 244.667 976.534 248 978.667C254.933 982.934 359.733 982 380.667 977.467C393.6 974.534 409.867 969.067 419.333 964.4C443.333 952.4 467.333 931.6 481.333 910.8C488.4 900.134 499.067 879.067 500.667 872.267C501.333 869.734 502.267 868.8 503.867 869.2C529.467 876.267 542.933 879.734 553.333 882C566.667 884.8 584 885.6 584 883.334C584 882.267 567.733 876.667 564.533 876.667C563.2 876.667 524.667 866.534 511.867 862.8L504.4 860.534L506.267 850.267C507.333 844.667 508.4 838.667 508.8 837.067C509.333 834.267 510 834.267 531.6 833.734C551.2 833.334 554.667 832.934 559.2 830.534C566.8 826.4 563.6 825.334 543.333 825.2C533.867 825.067 522.267 824.934 517.733 824.8L509.333 824.667V816.134C509.333 806 509.333 806 523.733 805.867C534.8 805.734 545.467 803.6 546.267 801.2C546.933 799.334 536.4 798 520.533 798H508.4L507.467 790.8C503.6 757.867 476.133 709.2 450.8 690.667C447.867 688.4 445.333 686.4 445.333 686C445.333 685.6 448 681.734 451.333 677.334C457.733 668.8 461.867 661.067 463.333 654.667L464.267 650.667L460.8 653.867L457.467 656.934L458.933 652.134C459.733 649.467 460 646.934 459.6 646.4C458.267 645.067 454.667 648.8 443.2 663.467C433.6 675.6 432.267 676.8 429.067 676.134C425.6 675.467 425.467 675.6 426.8 678.534C428.4 681.867 428.133 682.267 391.333 726.667C376.267 744.667 362.267 762.667 354.8 773.467L349.067 781.734L337.867 782.267C328.133 782.8 325.867 783.334 321.067 786.8C306.133 797.334 305.067 820.4 318.933 831.334C330.8 840.534 347.333 840.134 357.867 830.267C367.067 821.6 369.333 806.667 363.2 795.334L359.733 788.934L365.467 781.067C372.4 771.6 424.933 708 433.333 698.934L439.333 692.534L449.6 702.934C462.267 716 466.133 720.534 473.2 730.8C484 746.8 494.933 773.867 498 792.267L498.933 798H437.067C403.2 798 374 798.4 372.4 798.8C368.533 799.867 367.333 803.334 370 805.867C371.867 807.734 379.6 808 436 807.867L500 807.734V816.267V824.934L460.4 824C434.133 823.334 414.267 823.6 402 824.534C379.2 826.4 373.333 827.867 373.333 831.334C373.333 835.067 377.2 836.667 396 840.8C405.2 842.8 427.733 848.667 446 853.734C464.4 858.934 482.267 863.867 485.733 864.8C491.733 866.267 492.133 866.534 491.333 869.867C490.8 871.734 488.133 878.267 485.333 884.4C464.667 928.667 425.867 958.534 376.133 968.667C358.133 972.267 326.267 972.4 305.067 968.8C262 961.334 227.2 939.6 203.6 905.067C174.933 862.934 167.333 806 184.267 758.267C203.2 704.4 243.2 669.067 302.667 653.734C334.267 645.467 376.667 647.6 403.333 658.667C405.733 659.734 405.867 659.6 404 657.334C400.4 652.934 390.267 647.334 379.333 643.734C369.867 640.667 366.133 640.267 346 639.867C330.133 639.6 320.133 640 312.667 641.334ZM345.733 799.6C346.133 800.934 347.2 800.934 350.267 799.867C354 798.534 354.533 798.667 355.867 801.6C358 806.267 357.733 813.467 355.2 818.267L353.067 822.534L350.4 818.934C348.4 816.267 346.667 815.334 343.2 815.334C337.867 815.334 334.267 810.934 334.933 805.067C335.467 800 344.267 795.467 345.733 799.6ZM499.333 836.267C499.067 837.6 498.133 842.667 497.2 847.734C496.4 852.667 495.333 856.934 494.8 857.2C494.4 857.6 476.533 852.8 455.333 846.667C434 840.667 415.467 835.334 414 834.934C412.533 834.667 431.2 834.267 455.6 834.134C496.933 834 499.733 834.134 499.333 836.267Z" fill="#DDE5EF"/>
<path d="M684.399 740.4C683.332 741.067 683.732 744 686.132 751.2C690.665 765.067 690.399 767.333 684.932 767.333C682.532 767.333 677.199 768.267 673.199 769.467C651.465 776 637.065 789.467 634.132 806.267C633.065 812.533 635.065 812.933 637.465 807.067C640.132 800.667 654.532 786.933 662.799 782.933C683.065 773.067 704.799 772.933 723.732 782.533C745.999 793.867 760.932 831.867 752.665 856.533C743.465 884.267 712.399 902.8 682.265 898.4C676.532 897.6 668.132 895.067 661.732 892.133C649.332 886.533 647.999 886.4 647.999 890C647.999 896.8 662.399 904.933 679.065 907.6C723.332 914.4 763.999 882.4 763.999 840.8C763.999 827.6 761.332 817.467 754.399 803.467C744.532 783.6 730.265 772.667 708.799 768.4L699.599 766.533L695.865 754.8C691.065 739.867 689.065 737.467 684.399 740.4Z" fill="#DDE5EF"/>
<path d="M39.3321 875.467C28.3987 876 16.7987 876.934 13.5987 877.734C-5.86794 882.267 14.7987 884.667 65.3321 883.6C86.3987 883.2 93.7321 881.734 93.0654 878.267C92.2654 874.134 79.7321 873.467 39.3321 875.467Z" fill="#DDE5EF"/>
<path d="M115.733 905.334C115.467 905.6 102 906.134 86 906.534C44.3999 907.6 33.0666 908.934 40.9333 911.867C51.4666 916 127.867 916 141.067 912C148.4 909.734 150 907.734 145.067 906.8C140.933 906 116.4 904.8 115.733 905.334Z" fill="#DDE5EF"/>
<path d="M17.3326 939.333C4.13256 941.067 -0.134105 942.133 0.399229 943.733C1.33256 946.667 9.33256 947.333 47.9992 947.467C86.7992 947.6 99.3326 946.933 100.799 944.4C102.133 942.267 100.399 941.6 89.5992 939.867C78.6659 938 29.9992 937.6 17.3326 939.333Z" fill="#DDE5EF"/>
<path d="M664.667 969.467C663.2 969.867 660.533 970.4 658.667 970.8C651.6 972.4 660.267 974.134 683.733 976.267C705.467 978.134 726.533 977.867 734.4 975.867C737.867 974.934 738.267 972 735.067 970.534C732.533 969.467 669.067 968.4 664.667 969.467Z" fill="#DDE5EF"/>
</svg>
