<svg width="1163" height="986" viewBox="0 0 1163 986" fill="none" xmlns="http://www.w3.org/2000/svg">
<path d="M328.002 0.999908C324.668 1.53326 318.668 3.2666 314.668 4.86658C310.668 6.46658 306.002 7.6666 304.268 7.6666C296.135 7.6666 274.135 22.4666 263.335 35.1332C251.335 49.3999 246.535 57.5332 246.268 64.9999C246.002 70.9999 245.602 71.7999 241.068 74.3332C238.135 75.9332 235.602 78.5999 235.202 80.4666C234.268 84.1999 236.802 111.133 238.802 118.6C240.002 123.133 240.668 123.8 247.068 125.667C276.802 134.333 370.402 153 384.002 153C388.135 153 391.602 151.4 400.935 145.133C416.402 134.733 431.868 121.267 432.935 117.267C434.668 110.2 431.068 111 418.402 120.6C397.202 136.6 397.068 136.6 394.802 127.933C391.335 114.467 391.335 115 398.268 110.733C401.735 108.467 406.802 106.333 409.468 105.933C417.468 104.733 423.868 101.4 426.668 96.7332C428.135 94.3332 428.802 91.9332 428.268 91.3999C427.735 90.8666 422.268 92.1999 416.002 94.3332C409.735 96.4666 402.402 98.3332 399.602 98.3332C396.802 98.3332 389.068 96.1999 382.268 93.5332C367.335 87.7999 362.935 87.9332 339.335 94.8666C321.068 100.2 308.935 102.467 306.402 100.867C304.002 99.2666 312.135 91.2666 321.335 86.0666C333.202 79.2666 348.002 68.7332 349.602 65.9332C351.202 62.7332 348.668 60.5999 344.668 61.7999C343.202 62.1999 340.535 62.8666 338.668 63.2666C336.802 63.7999 332.002 66.3332 328.002 69.1332C324.002 71.7999 315.868 76.7332 310.002 79.9332L299.335 85.6666L284.002 85.2666C275.602 85.1332 264.535 84.7332 259.335 84.5999C250.268 84.3332 250.002 84.4666 249.602 87.7999C249.068 92.1999 250.535 92.7332 274.802 99.1332C290.535 103.267 294.668 104.867 297.602 107.933L301.068 111.667L317.602 111.4C328.802 111.133 338.268 111.8 347.335 113.4C354.668 114.733 364.935 116.467 370.002 117.4L379.335 119L379.735 127C380.002 131.4 379.735 137 379.335 139.533L378.535 143.933L371.602 143.133C353.068 140.733 249.602 118.867 247.602 117C246.268 115.8 242.668 93.3999 242.668 86.7332C242.668 82.3332 242.668 82.3332 272.402 67.7999C288.668 59.7999 304.002 52.5999 306.535 51.7999C312.268 49.9332 323.602 49.9332 336.802 51.7999C345.335 52.9999 347.468 52.8666 348.668 51.3999C349.602 50.0666 352.002 49.6666 356.002 49.9332L362.002 50.4666L356.268 45.1332C348.535 38.0666 338.002 34.0666 324.668 33.3999L314.002 32.7332L300.268 40.9999C286.268 49.2666 279.068 52.5999 277.868 51.2666C276.002 49.3999 282.668 40.0666 292.268 30.9999C311.602 12.7332 330.535 6.06659 349.202 10.8666C375.468 17.5333 404.002 35.1332 436.935 64.8666C449.735 76.4666 452.135 79.2666 454.002 85.1332C458.268 97.7999 455.068 110.467 444.535 122.467C440.402 127.133 436.002 133.133 434.668 135.667C431.868 141.267 430.002 149 431.602 149C432.135 149 445.202 136.2 460.668 120.6C492.535 88.1999 498.535 83.9332 510.268 85.5332C516.268 86.4666 517.602 87.3999 530.402 100.6C565.068 136.2 617.068 208.6 650.935 268.333C664.935 292.867 668.668 296.733 668.401 285.8C668.135 277.133 652.668 249.8 620.802 201.667C581.468 142.467 531.335 80.9999 513.602 70.7332C507.868 67.3999 507.868 67.3999 502.535 69.6666C499.735 70.9999 492.535 76.0666 486.668 80.9999L475.868 89.9332L459.602 73.6666C430.668 44.9999 403.468 24.4666 378.002 12.1999C357.602 2.33325 341.068 -1.40009 328.002 0.999908ZM270.535 41.6666C266.535 47.5332 264.268 49.7999 263.335 48.7332C262.802 48.1999 273.068 35.6666 274.002 35.6666C274.402 35.6666 272.802 38.3332 270.535 41.6666ZM268.002 58.3332C268.002 59.1332 265.068 61.1332 261.335 62.9999C254.802 66.3332 254.668 66.3332 254.668 63.6666C254.668 61.6666 256.268 60.1999 260.268 58.3332C265.735 55.9332 268.002 55.9332 268.002 58.3332Z" fill="#DDE5EF"/>
<path d="M128 12.9998C128 15.9331 143.333 36.3331 149.467 41.5331C156.267 47.2665 159.6 45.6665 158.133 37.5331C157.2 32.5998 146.933 20.0665 139.067 13.9331C133.2 9.53313 128 9.13313 128 12.9998Z" fill="#DDE5EF"/>
<path d="M111.068 53.2664C107.735 54.8664 107.068 58.8664 109.601 60.5997C110.535 61.1331 114.268 62.0664 118.001 62.7331C121.601 63.2664 126.668 64.0664 128.935 64.5997C139.068 66.3331 143.201 61.7997 136.801 55.7997C134.268 53.3997 131.601 52.5997 123.735 52.1997C118.001 51.9331 112.801 52.3331 111.068 53.2664Z" fill="#DDE5EF"/>
<path d="M124.667 91.2663C113.2 99.6663 107.067 108.6 110.4 111.933C112.134 113.666 112.134 113.666 127.867 104.6C138.667 98.3329 143.334 93.5329 141.867 89.9329C140.4 86.1996 130.8 86.9996 124.667 91.2663Z" fill="#DDE5EF"/>
<path d="M544.268 158.333C538.801 161.667 536.801 166.2 537.868 172.067C540.268 184.867 556.268 188.067 562.001 177C564.668 171.933 564.535 169.933 561.468 166.2L558.935 163L555.601 166.2C553.735 167.933 552.535 170.067 552.801 171C553.868 173.533 550.935 174.867 548.668 173C545.601 170.467 546.268 166.733 550.535 163.8C552.668 162.333 554.668 159.8 555.068 158.333C555.601 156.2 555.068 155.667 552.268 155.667C550.268 155.667 546.668 156.867 544.268 158.333Z" fill="#DDE5EF"/>
<path d="M800 181C777.2 183.933 748.534 198.6 733.467 215C717.867 232.2 710.4 247 709.6 263.133C708.534 282.333 715.867 296.2 730.667 303.4L738.667 307.133L724.934 319.4C708.667 334.066 704.134 337.266 695.334 340.066C683.467 343.933 678.934 344.2 670.667 341.666C665.2 340.066 662.267 339.666 660.667 340.733C658.534 341.8 658.934 342.466 664 346.2C671.2 351.4 677.067 352.466 688.667 350.466C706.267 347.533 716.534 340.733 747.2 312.066C759.734 300.333 768.934 294.333 777.467 292.466C782.934 291.266 789.334 296.333 794 305.533C797.467 312.6 797.867 314.866 798 325.533C798 332.2 797.467 344.066 796.8 351.8C795.467 368.333 796.934 376.466 802.8 385.4C804.934 388.6 808.667 392.333 811.2 393.666C814.934 395.666 815.6 396.866 815.467 400.2C815.2 406.6 819.2 406.333 826.534 399.266C834.267 391.8 837.067 390.333 844.267 390.333C856.934 390.333 863.067 399.133 860 412.6C857.334 424.466 849.2 431 831.334 435.666C824.8 437.266 814.4 445.933 811.467 452.2C802 472.2 825.734 493.533 845.867 483C850.667 480.466 850.667 480.466 850.667 483.4C850.667 486.866 849.2 487.933 847.067 486.066C845.467 484.733 845.334 485.133 846.134 488.466C854.4 523.533 912 541.4 952 521.4C967.2 513.666 970 509.133 974.667 484.733C975.467 480.6 977.467 475.533 978.934 473.666C980.534 471.666 987.334 467.533 994.267 464.2C1025.33 449.8 1040 419.266 1029.87 389.666C1025.2 375.533 1013.33 362.466 1008.8 366.2C1007.47 367.266 1006.53 367.133 1005.33 365.666C1003.87 363.933 1004 363.266 1006.27 361.666C1009.6 359.4 1012.8 351.8 1014 343.266C1015.07 336.466 1015.07 336.333 1020.93 338.466C1023.47 339.266 1024.93 340.733 1024.8 342.066C1024.53 345.133 1033.6 349.133 1044.67 350.733C1067.6 354.066 1097.07 341 1112.13 321C1135.6 289.933 1132.93 250.066 1105.33 222.2C1081.87 198.333 1051.6 193.266 1021.33 207.933C1011.6 212.733 999.2 224.2 995.467 232.066L993.2 237.133L983.867 228.466C972.534 217.666 953.467 207.933 934 202.866C912.134 197.133 881.6 198.2 869.734 205L865.6 207.4L864 203.533C862 198.733 852.667 190.066 845.734 186.6C834.8 181 816.934 178.733 800 181ZM866.534 213.266C867.334 211.933 873.334 209.8 873.334 210.733C873.334 211.133 871.867 212.333 870.134 213.533C867.067 215.4 866.4 215.4 860.534 212.866C856.134 210.866 854.8 209.666 856.134 209C857.2 208.2 859.2 209 861.734 211.133C864 213 866.134 213.933 866.534 213.266ZM936.8 211.8C969.6 221.8 991.867 242.733 1002.4 273.4C1004.8 280.6 1006.67 286.866 1006.27 287.133C1006 287.4 1003.73 282.733 1001.33 276.733C998.934 270.6 996 264.2 994.667 262.333C993.467 260.466 991.067 256.2 989.334 252.733C984.267 242.333 968.934 227.666 958 222.733C942.4 215.666 939.067 214.333 937.067 214.333C934.8 214.2 924.267 209.266 926.134 209.133C927.067 209 931.867 210.2 936.8 211.8ZM889.6 223C888.934 227 889.067 227 882.934 223.933L878 221.666L884 220.866C887.334 220.466 890.134 219.933 890.134 219.933C890.267 219.8 890 221.133 889.6 223ZM748.934 228.6C747.867 229.933 745.334 234.6 743.334 239C738.267 250.466 738.134 267.4 743.067 279.533L746.534 287.933L742.4 284.2C736.267 278.333 733.334 271 733.334 261C733.334 253.666 734.134 250.6 738.134 242.333C740.667 236.866 744.4 230.733 746.267 228.733C750 224.733 752.534 224.733 748.934 228.6ZM860.667 251.933C863.067 260.2 863.2 277.266 860.8 288.333C859.2 296.2 859.2 296.2 859.2 278.333C859.2 265.8 858.534 258.066 857.067 252.866C854.667 244.6 851.467 237.666 849.334 236.333C848.667 235.933 848 234.866 848 234.2C848 230.6 858.8 245.8 860.667 251.933ZM837.867 243.266L840.134 248.333L836.8 244.333C833.334 240.2 832.534 238.333 834.4 238.333C835.067 238.333 836.534 240.6 837.867 243.266ZM902.934 245C908.267 248.6 915.067 253.8 918 256.333C924.667 262.466 922 261.133 911.467 253.133C907.067 249.8 900.534 245.533 897.067 243.666C891.067 240.6 888.934 238.333 891.867 238.333C892.534 238.333 897.467 241.266 902.934 245ZM1069.33 251.666C1073.33 257.933 1073.6 258.866 1072.8 266.066C1072.27 270.2 1071.2 275.666 1070.4 278.066C1068.8 283.266 1058.67 296.333 1052 301.8L1047.33 305.666L1051.6 300.6C1054 297.8 1058 293.533 1060.53 291C1066.13 285.4 1068.4 278.866 1068.53 267.666C1068.67 260.466 1068 257.4 1064.67 250.733C1059.6 240.733 1062.67 241.266 1069.33 251.666ZM756.667 263.533C756.667 277.533 754.934 278.6 753.734 265.266C753.2 259 754.667 250.333 756.267 250.333C756.534 250.333 756.667 256.333 756.667 263.533ZM794.667 253.666C793.734 254.866 792.667 255.4 792.267 255C791.867 254.733 792.4 253.533 793.334 252.333C794.267 251.133 795.334 250.6 795.734 251C796.134 251.266 795.6 252.466 794.667 253.666ZM774.934 263.4C774.534 271 774.934 275 776.534 279C778.267 283 778.267 283.8 776.934 282.333C774.4 279.666 770.667 269.666 770.667 265.533C770.667 262.466 774 253 775.067 253C775.334 253 775.334 257.666 774.934 263.4ZM888.134 255.266C889.867 257.4 889.734 257.533 887.734 255.8C886.4 254.866 885.334 253.8 885.334 253.533C885.334 252.466 886.4 253.133 888.134 255.266ZM815.2 262.066C816.267 264.066 817.6 268.066 818.134 271C819.067 276.066 819.067 276.066 816.534 273.533C807.467 264.333 806.267 262.466 808 260.333C810.534 257.266 813.067 257.933 815.2 262.066ZM936.267 273.266C942.667 281.4 939.734 279.133 932 269.933C928 265.4 926.534 263.133 928.534 265C930.534 266.866 934 270.6 936.267 273.266ZM788.934 266.6C788.534 267.666 788.134 267.266 788.134 265.8C788 264.333 788.4 263.533 788.8 264.066C789.2 264.466 789.334 265.666 788.934 266.6ZM1028.8 274.733C1029.33 278.2 1028.67 280.066 1025.33 284.066C1020.13 290.2 1016 292.733 1016 289.666C1016 288.6 1016.8 287.666 1017.87 287.666C1020.53 287.666 1025.73 280.066 1025.87 275.8C1025.87 273.933 1025.47 270.466 1024.93 268.333C1023.87 264.333 1023.87 264.333 1026 267.4C1027.2 269 1028.53 272.333 1028.8 274.733ZM1088.8 283.666C1086.93 289.533 1084.4 296.333 1083.2 298.733C1077.6 309.666 1061.47 321.8 1048.8 324.466C1036.67 327.133 1017.33 326.733 1017.33 323.8C1017.33 323.4 1023.47 323 1031.07 323C1044.27 323 1045.2 322.733 1054.93 317.933C1062.13 314.466 1067.2 310.733 1072.4 305C1080.13 296.733 1088.53 281.666 1090.27 273.266C1090.8 270.6 1091.47 269.4 1091.73 270.6C1092 271.8 1090.67 277.666 1088.8 283.666ZM930.934 296.2C936.534 305.666 943.067 321 942.134 322.066C941.467 322.6 938.534 316.2 935.334 307.666C933.2 301.666 925.734 289.4 923.334 288.066C922.4 287.4 921.334 285.533 920.8 283.666L919.867 280.333L922.667 283.666C924.267 285.4 928 291 930.934 296.2ZM795.6 288.066C800.934 295.933 800.534 297.533 794.8 291.8C791.734 288.733 789.6 285.666 790 285C791.334 282.866 792.534 283.533 795.6 288.066ZM1031.33 297C1030.4 298.6 1024.8 301.533 1020.4 302.866C1018 303.666 1017.33 303.266 1017.33 301.4C1017.33 299.533 1018.4 298.866 1021.47 298.6C1023.87 298.466 1026.67 297.666 1027.87 297C1030.67 295.4 1032.4 295.4 1031.33 297ZM1108 310.2C1100.4 322.6 1085.47 333.8 1070.8 338.333C1060.67 341.533 1057.2 341.666 1064.67 338.733C1077.6 333.533 1094.93 321.8 1103.07 312.733C1107.6 307.8 1111.47 303.666 1111.6 303.666C1111.87 303.666 1110.13 306.6 1108 310.2ZM928.667 321.533C929.734 327.266 930.534 335.266 930.534 339.4C930.4 346.6 930.267 346.2 927.867 333C925.467 319.133 924.667 309.266 926 310.6C926.4 311 927.6 315.933 928.667 321.533ZM870.8 357.666C883.6 380.333 884 381.8 874.267 368.6C866.134 357.4 858.667 341.666 858.667 335.666C858.8 331 858.8 331.133 861.067 337.666C862.4 341.4 866.8 350.466 870.8 357.666ZM1000.53 417.266C999.334 427.8 997.334 432.733 992.8 436.733C990.267 438.866 987.334 442.466 986.134 444.466C984.934 446.733 984.134 447.4 984 446.2C984 445.133 985.6 442.066 987.467 439.533C991.734 434.066 998.667 419.266 998.667 415.933C998.667 413.8 999.734 411.666 1000.8 411.666C1001.07 411.666 1000.93 414.2 1000.53 417.266ZM886.667 419.8C885.867 422.333 882.667 427.266 879.334 431L873.334 437.666L880.267 426.2C884.134 419.8 887.467 414.733 887.6 414.866C887.734 415 887.334 417.266 886.667 419.8ZM852.267 438.6C851.467 439.4 850.267 439.666 849.734 439.133C849.2 438.6 849.6 437.666 850.667 437C853.2 435.4 854.267 436.6 852.267 438.6ZM863.2 447.266C858.934 453.666 859.067 453.533 858.267 450.466C857.734 448.466 858.667 447 861.867 445.133C864.134 443.533 866.134 442.333 866.267 442.333C866.4 442.333 865.067 444.6 863.2 447.266ZM839.867 449.666C844.667 455.133 846 459.4 844.8 465.4C843.734 470.866 837.734 477 833.6 477C828.4 477 822 472.2 819.334 466.2C816.8 460.866 816.8 460.6 819.334 455.933C822.134 450.733 829.6 445 833.334 445C834.667 445 837.6 447.133 839.867 449.666ZM975.334 460.866C975.734 461.533 975.467 462.466 974.667 463C974 463.4 973.334 462.866 973.334 461.8C973.334 459.4 974.134 459 975.334 460.866ZM912.667 470.2C913.467 474.733 913.2 475.8 911.867 475.4C910.667 475 909.867 472.333 909.6 468.2C909.067 460.2 911.334 461.666 912.667 470.2ZM967.2 472.2C966.8 473.4 965.867 473.933 965.067 473.533C964.4 473.133 964.534 471.933 965.467 470.866C967.467 468.466 968.4 469.133 967.2 472.2ZM935.734 473C937.867 476.466 936.534 479.133 933.867 476.866C931.867 475.266 931.2 470.333 933.067 470.333C933.6 470.333 934.8 471.533 935.734 473ZM895.867 481.933C896 482.866 895.467 483.666 894.667 483.666C894 483.666 893.334 481.666 893.467 479.266C893.467 475.666 893.734 475.4 894.667 477.666C895.334 479.133 895.867 481.133 895.867 481.933ZM923.2 488.733C926.134 491.933 926.534 492.866 924.934 494.2C923.334 495.4 922.267 494.866 919.6 491.133C916.534 487.133 916.134 485 918.667 485C919.067 485 921.2 486.733 923.2 488.733ZM964 488.333C964 489.4 963.067 490.333 962 490.333C959.867 490.333 959.334 488.733 960.934 487.266C962.4 485.666 964 486.2 964 488.333ZM905.2 497L909.467 502.333H906.134C904 502.333 901.867 501 900.134 498.466C894.267 490.2 898.667 489 905.2 497ZM957.6 505.4C955.334 507.8 953.6 508.333 950.4 507.933L946.267 507.266L949.467 504.866C951.2 503.533 954.4 502.333 956.534 502.333H960.4L957.6 505.4Z" fill="#DDE5EF"/>
<path d="M433.2 187.266C432.4 198.466 439.6 209.133 473.467 247.933C507.2 286.466 528.8 320.733 544.667 360.333C549.867 373.4 552.534 378.6 556 381.666L559.067 384.333L558.267 377C557.334 367 549.867 347.266 538 323C524.4 295.266 507.2 269.933 484.534 244.333C480 239.133 470.267 225.666 462.8 214.333C446.134 189 442.667 185 437.334 185C434.534 185 433.334 185.666 433.2 187.266Z" fill="#DDE5EF"/>
<path d="M252.001 211.4C230.001 220.333 212.001 229.133 209.468 232.066C207.601 234.466 207.468 271.533 208.801 373.8L209.734 436.6L200.534 437.4C195.468 437.933 171.068 438.733 146.268 439.133L101.201 440.066L91.8675 446.6C86.8008 450.2 78.9342 456.6 74.4008 460.866L66.2675 468.6L67.8675 497.133C73.2008 593.133 75.8675 711.533 76.0008 859.933V942.333L51.7342 942.466C8.40083 942.6 5.20083 942.866 2.40083 946.333C1.0675 947.933 0.400833 949.8 0.800833 950.466C1.20083 951.133 15.4675 951.666 32.4008 951.666C54.4008 951.666 64.2675 952.2 66.6675 953.4C71.0675 955.533 74.6675 963 74.6675 969.933V975.533L67.4675 977C63.6008 977.8 59.3342 979.266 58.0008 980.2C55.8675 981.666 56.0008 982.066 60.1342 983.666C63.8675 985.266 90.9342 985.533 224.668 985.4C473.468 985.133 501.868 984.733 504.801 982.2C506.268 981 509.734 979.266 512.668 978.333C524.668 974.6 559.201 955 567.734 947.133L570.934 944.333L676.401 944.733C783.334 945.266 789.334 945 789.334 940.466C789.334 934.466 792.001 934.6 674.401 934.6C572.001 934.6 549.468 935.133 544.001 937.533C542.268 938.2 542.001 930.6 542.001 872.733C542.001 836.6 541.201 789 540.268 767C536.134 670.866 531.868 589.133 530.534 583C529.734 579.266 529.201 574.733 529.201 572.733C529.201 570.6 528.268 568.466 526.934 567.8C525.601 567.133 499.734 566.333 469.334 566.066L413.868 565.666L398.801 575.533C384.268 585 383.468 585.4 380.134 583.533C373.068 579.533 369.601 568.466 366.134 537.266C362.534 506.866 361.201 483.8 360.001 433C356.668 302.066 355.334 275.266 350.801 253.666C347.868 239.666 346.668 241.4 363.734 234.866C369.868 232.466 377.068 228.866 379.868 226.6L384.934 222.466L385.868 247.4C386.401 261.133 387.068 277.4 387.468 283.666C389.468 321.933 392.401 425 393.334 484.333C394.268 554.2 395.201 566.333 399.068 562.466C401.201 560.333 401.068 405.666 398.934 339.666C395.734 241.8 393.868 216.2 390.134 214.066C389.068 213.4 388.401 212.066 388.934 211C389.334 209.666 388.134 208.333 385.068 207.133C381.468 205.533 368.801 205 325.868 204.333L271.334 203.533L252.001 211.4ZM297.068 212.333C296.801 212.733 286.401 217.133 274.134 222.333C252.134 231.533 251.468 231.666 240.268 231.666C229.868 231.533 228.934 231.4 231.201 229.666C233.201 228.2 262.134 216.466 273.334 212.6C275.868 211.666 298.001 211.4 297.068 212.333ZM346.134 257.933C345.601 266.6 346.134 300.333 347.334 333C351.734 461.8 360.934 907.133 359.601 931.666C358.401 953.133 353.201 973 348.401 974.866C340.401 978.066 228.401 979.266 225.468 976.333C224.668 975.533 223.734 891.4 222.801 755.666C222.001 635 220.668 499.133 219.868 453.666C219.068 408.2 218.668 346.066 218.934 315.666C219.334 265.4 219.601 259.933 221.734 255.533C223.334 252.466 225.468 250.2 227.734 249.666C229.734 249.133 252.401 248.466 278.001 248.2C319.068 247.8 325.868 247.533 334.668 245.266C340.134 243.8 345.201 242.6 345.868 242.466C346.534 242.333 346.668 249 346.134 257.933ZM122.001 448.733C121.201 449.4 116.401 453.266 111.068 457.4C101.467 465 101.467 465 92.4008 465L83.3342 464.866L88.0008 460.866C90.5342 458.6 95.6008 454.733 99.3342 452.2C105.201 448.2 106.934 447.666 114.534 447.666C119.334 447.666 122.668 448.2 122.001 448.733ZM194.534 479C202.134 485.933 205.068 493.933 206.668 512.466C210.134 555.266 213.068 828.866 210.801 907C209.201 962.066 207.201 973.133 198.001 976.066C189.334 978.866 88.8008 976.866 85.7342 973.8C85.6008 973.666 85.2008 903.666 84.8008 818.333C84.1342 666.333 83.3342 624.6 79.3342 542.333C78.2675 519.933 77.3342 495.8 77.3342 488.733V475.666L131.734 475.266C161.601 475.133 186.801 474.866 187.601 474.6C188.534 474.466 191.601 476.466 194.534 479ZM432.001 574.866C432.001 575.133 425.201 580.466 417.068 586.466C402.001 597.533 402.001 597.533 392.001 598.466C386.534 599 381.868 599.266 381.601 599C381.201 598.6 412.001 577.933 416.001 576.066C419.068 574.6 432.001 573.666 432.001 574.866ZM523.201 607C523.734 620.866 524.401 634.066 524.668 636.333C524.934 638.466 525.601 647.8 526.001 657C526.401 666.2 528.534 710.2 530.668 755C533.468 811.4 534.668 851.533 534.801 886.333C534.934 913.8 535.334 937.8 535.868 939.666C536.668 942.333 535.601 944.066 528.801 950.6C524.134 955.266 519.734 958.333 518.001 958.333C513.468 958.333 509.334 952.866 507.868 944.866C507.201 940.866 506.001 909.4 505.334 875C504.668 840.466 503.468 795.533 502.801 775C502.001 754.466 501.068 709.8 500.534 675.666C500.134 641.533 499.201 611.533 498.668 609C497.734 604.466 497.868 604.066 509.868 592.866C516.534 586.466 522.134 581.4 522.134 581.533C522.268 581.533 522.801 593 523.201 607ZM489.868 675.666C492.134 747.8 492.934 783.666 494.001 870.333C494.401 903 495.068 940.066 495.468 952.866L496.134 976.066L446.401 974.866C419.068 974.2 390.668 973.933 383.334 974.066L370.001 974.466L369.868 937.4C369.868 903.533 366.668 728.066 364.534 644.333L363.601 609.666L396.801 610.066C415.068 610.2 442.668 609.933 458.001 609.4C476.401 608.733 486.268 608.733 486.801 609.666C487.334 610.333 488.668 640.066 489.868 675.666Z" fill="#DDE5EF"/>
<path d="M268.001 541.266C257.201 549.4 250.668 555.666 250.668 557.8C250.668 558.6 251.468 560.066 252.401 560.866C253.868 561.933 254.801 561.666 256.668 559.666C257.868 558.333 263.335 554.333 268.535 550.866C279.068 544.2 281.868 540.866 280.668 536.866C279.468 533.133 277.735 533.8 268.001 541.266Z" fill="#DDE5EF"/>
<path d="M282.667 572.733C279.334 576.2 272.001 582.733 266.401 587.4C256.267 595.666 253.201 600.066 255.734 602.6C257.201 604.066 285.201 585.8 291.067 579.533C294.934 575.4 295.734 570.6 293.067 567.933C290.534 565.4 289.067 566.066 282.667 572.733Z" fill="#DDE5EF"/>
<path d="M149.067 684.867C131.467 702.333 124 710.6 124 712.733C124 714.333 124.667 715.667 125.333 715.667C126.133 715.667 130.8 711.933 135.733 707.267C140.8 702.733 150.8 693.8 158.267 687.4C165.6 681 173.333 673.8 175.333 671.133C179.067 666.2 179.467 660.466 176 660.2C174.933 660.067 162.8 671.133 149.067 684.867Z" fill="#DDE5EF"/>
<path d="M159.068 720.867C158.135 722.333 152.668 727.133 146.802 731.533C136.535 739.267 136.135 739.933 137.602 743C138.402 744.867 139.468 746.2 139.868 746.067C140.268 745.8 143.335 743.8 146.668 741.4C150.002 739 155.735 735.133 159.335 732.733C166.268 728.2 168.268 723.933 165.335 720.2C163.068 717.667 160.935 717.8 159.068 720.867Z" fill="#DDE5EF"/>
<path d="M429.735 886.6C428.268 888.333 423.335 892.866 418.801 896.733C412.935 901.8 410.668 904.733 410.668 907.133V910.466L415.601 907C418.401 905.133 421.068 903.666 421.735 903.666C422.268 903.666 426.001 901.666 430.001 899.133C438.135 893.933 440.001 890.066 436.535 886.2C433.601 883 433.068 883 429.735 886.6Z" fill="#DDE5EF"/>
<path d="M534.667 287.667C531.734 290.6 531.467 291.533 533.201 294.2C534.267 295.8 535.067 295.8 538.667 294.333C542.267 292.867 543.201 292.867 544.934 294.733C547.467 297.267 546.134 299.667 542.001 299.667C537.867 299.667 536.534 302.067 539.201 304.733C542.001 307.533 550.134 307.267 553.467 304.2C556.267 301.667 556.801 295.667 554.534 291.4C552.934 288.333 545.734 285 540.667 285C538.801 285 536.134 286.2 534.667 287.667Z" fill="#DDE5EF"/>
<path d="M761.601 305.266C759.734 307.133 759.467 312.866 761.201 315.4C761.734 316.333 766.134 318.466 770.801 320.066C777.334 322.333 779.867 324.066 782.267 327.666C788.001 336.6 789.067 337.133 792.667 333.4C799.867 326.333 781.067 303.666 768.001 303.666C765.334 303.666 762.534 304.333 761.601 305.266Z" fill="#DDE5EF"/>
<path d="M748.667 336.2C736.134 341.667 730.801 356.2 739.334 361.8C743.734 364.733 749.067 363.267 755.734 357.533L761.201 352.867L766.534 356.333C771.601 359.8 777.334 360.067 777.334 357C777.334 355.267 760.267 336.067 757.867 335.133C754.934 333.933 753.201 334.2 748.667 336.2ZM750.667 348.333C748.934 350.2 747.201 351.267 746.801 350.867C746.401 350.467 747.467 349 749.201 347.533C753.601 343.933 754.401 344.333 750.667 348.333Z" fill="#DDE5EF"/>
<path d="M657.468 379.133C655.602 388.6 655.602 421.4 657.468 432.866C663.602 470.6 692.135 502.2 731.202 514.2C742.668 517.8 760.935 518.2 762.268 514.866C763.735 511 759.335 508.733 748.135 507.533C710.935 503.4 678.135 475 667.335 437.8C665.868 432.733 664.535 420.2 663.468 402.2C661.868 372.333 660.135 365.933 657.468 379.133Z" fill="#DDE5EF"/>
<path d="M702.134 422.999C697.201 429.399 692.801 430.999 686.401 428.866C680.801 426.999 677.334 428.733 677.334 433.133C677.334 438.733 693.201 441.799 701.201 437.666C707.467 434.466 712.267 427.933 711.734 423.133C711.201 416.999 706.801 416.866 702.134 422.999Z" fill="#DDE5EF"/>
<path d="M789.067 526.333C781.067 530.6 770.667 542.067 766.133 551.533C762.4 559.533 762 561.533 762 573.667C762 585.8 762.4 587.667 766 595C771.6 606.333 782.933 617.4 791.067 619.667C795.467 620.867 798.8 621 801.067 620.2C806.933 618.067 806 615.8 797.867 612.2C782.933 605.667 773.067 591.8 773.067 577.8C773.2 564.2 777.333 555.267 788.667 544.333C798.533 534.733 800.8 530.467 798.533 526.067C796.933 523 795.333 523.133 789.067 526.333Z" fill="#DDE5EF"/>
<path d="M810 558.733C806.8 566.6 806.4 570.2 808 577.267C810.133 586.2 813.2 591.667 816.267 591.667C819.733 591.667 820.133 589.8 818.533 582.733C817.733 579.267 817.067 572.067 817.067 567C816.933 554.067 813.6 550.2 810 558.733Z" fill="#DDE5EF"/>
<path d="M789.202 558.6C788.402 560.2 787.335 565.266 786.935 569.8C786.402 576.466 786.935 579.666 789.335 585.533C792.668 593.666 796.668 598.2 798.802 596.066C799.602 595.266 799.602 593.533 798.668 591C796.402 584.866 794.668 568.333 795.868 564.066C797.868 557 792.535 552.466 789.202 558.6Z" fill="#DDE5EF"/>
<path d="M891.735 563.267C888.935 564.333 886.668 565.8 886.668 566.333C886.668 566.867 890.668 568.067 895.735 568.867C918.935 572.867 937.068 580.333 952.268 592.333C976.401 611.267 1007.6 660.733 1031.47 718.067C1051.47 766.067 1074.4 842.733 1082 887.667C1084.27 900.867 1086.27 907.667 1088 907.667C1088.53 907.667 1090 906.467 1091.33 905C1096.4 899.4 1092.27 874.467 1077.33 819.667C1064.53 773 1049.87 731.933 1032.13 693.4C1013.07 651.8 984.001 606.867 964.401 589C940.535 567.133 909.068 555.933 891.735 563.267Z" fill="#DDE5EF"/>
<path d="M778.534 640.333C773.6 647.933 770.934 653.4 758.134 682.2C726.534 753.133 705.734 828.6 704.934 875.133C704.667 891.8 705.867 895.133 710.4 890.6C712.267 888.733 713.2 885.4 713.867 878.2C717.2 841.8 722.267 815 733.2 777.666C745.067 737.266 751.467 719.266 767.334 682.466C780.4 652.066 782.8 645.4 782.4 640.733L782 635L778.534 640.333Z" fill="#DDE5EF"/>
<path d="M966.001 643C960.401 645.933 958.668 648.733 958.668 654.467C958.668 663.133 969.201 670.867 977.601 668.333C983.201 666.6 986.668 662.2 986.668 656.867C986.668 651.133 984.268 648.6 979.068 649.267C975.335 649.667 975.335 649.933 976.935 655.933C977.868 659 974.001 660.467 969.868 658.6C964.668 656.067 965.601 651 972.001 647.4C978.135 643.933 978.535 643 974.401 641.8C970.268 640.733 970.535 640.733 966.001 643Z" fill="#DDE5EF"/>
<path d="M809.067 745.8C805.601 747.666 802.801 753.533 804.534 755.266C804.934 755.666 807.467 755 810.134 753.533C814.667 751.133 814.934 751.133 816.667 753.4C819.201 757 817.734 759.4 812.134 761C807.201 762.333 803.201 766.733 804.801 769.266C805.334 770.066 808.401 770.333 812.401 769.933C817.867 769.533 819.867 768.466 822.934 765.133C828.934 758.466 827.201 749.533 819.334 745.666C814.001 743.266 813.601 743.266 809.067 745.8Z" fill="#DDE5EF"/>
<path d="M902.668 765.8C901.868 767.667 901.734 770.733 902.134 772.733C903.601 778.6 913.201 798.6 917.068 803.667C919.068 806.2 922.001 812.2 923.734 817C927.201 827 932.534 835.667 935.201 835.667C938.534 835.667 941.334 834.067 941.334 832.333C941.334 831.4 939.868 828.067 938.134 824.867C936.401 821.667 931.868 809.933 928.001 799C917.734 768.733 917.201 767.533 914.534 764.867C910.668 761 904.268 761.533 902.668 765.8Z" fill="#DDE5EF"/>
<path d="M1031.07 809.933C1027.2 810.733 1021.33 817.666 1021.33 821.399C1021.33 830.466 1032.8 837.933 1041.33 834.333C1048.27 831.399 1051.73 820.866 1047.47 815.266C1043.73 810.466 1038.67 813.533 1038.67 820.599C1038.67 824.066 1038.13 824.999 1036.13 824.999C1034.8 824.999 1032.93 824.066 1032 822.999C1030.67 821.399 1031.07 820.333 1034.53 817.133C1039.2 812.866 1039.6 810.999 1036.53 809.799C1035.33 809.399 1034.4 809.133 1034.27 809.133C1034.13 809.266 1032.67 809.666 1031.07 809.933Z" fill="#DDE5EF"/>
<path d="M962.267 868.6C960.667 870.067 961.201 871.667 963.201 871.667C966.134 871.667 968.267 875.267 967.334 878.467C966.401 881.4 966.001 881.4 948.134 880.6C938.134 880.2 922.534 878.867 913.334 877.667C902.801 876.2 891.067 875.533 881.067 875.933C866.401 876.467 865.067 876.733 855.601 881.4C832.001 893 803.467 931.267 801.734 953.533C801.067 960.867 801.334 962.333 803.867 964.867C809.867 970.867 818.534 967 826.401 954.6C830.667 948.067 835.334 934.333 833.467 934.333C832.267 934.333 827.067 940.067 818.134 950.867C806.801 964.733 809.201 949 821.467 929C830.267 914.733 849.734 894.867 860.001 889.667C869.734 884.733 885.867 883.8 909.867 886.867C919.334 888.067 938.267 889.667 951.734 890.333C965.334 891 976.534 891.8 976.801 892.067C978.401 893.533 980.267 915 979.334 921.533L978.401 929.267L969.867 933.133C959.867 937.667 951.867 938.067 937.601 934.867C930.001 933.133 926.801 933 921.201 934.2C910.134 936.6 905.467 939.533 892.134 952.2C885.201 958.867 879.334 963.533 879.067 962.733C878.801 961.933 880.667 956.867 883.467 951.4C886.934 944.467 891.201 938.867 898.134 932.067C903.601 926.733 908.001 921.8 908.001 921.133C908.001 919 898.801 921.933 891.867 926.333C888.267 928.733 883.734 932.6 882.134 934.867C877.734 940.6 871.201 953.933 869.467 960.733C867.734 966.733 866.267 967.533 861.734 964.333C858.934 962.333 858.934 962.067 860.934 955.267C864.134 944.2 870.001 933.8 878.001 924.867C882.001 920.333 885.334 915.533 885.334 914.067C885.334 911.8 885.067 911.667 881.467 913.667C879.334 914.733 873.867 919 869.467 923.133C858.401 933.267 850.001 949.8 850.001 961V968.733L846.401 966.067C840.934 962.2 839.867 959.533 841.601 953.533C844.401 943 853.601 927.133 861.467 919C867.067 913.133 869.334 909.8 869.334 907.267C869.334 905.267 868.801 903.667 868.134 903.667C866.134 903.667 854.134 913.667 848.934 919.667C846.267 922.733 841.467 930.733 838.134 937.267C830.934 951.267 829.867 960.867 834.667 968.733C838.801 975.4 842.134 976.2 867.334 975.933C907.734 975.533 930.401 970.2 901.734 967.8L891.734 967L902.267 956.867C916.267 943.133 922.267 941.533 942.401 945.667C950.267 947.267 953.601 947.4 960.401 946.2C964.934 945.4 972.667 944.467 977.467 944.067L986.267 943.4L989.467 949.133C991.867 953.4 994.401 955.933 999.334 958.333C1005.6 961.4 1007.2 961.667 1024.67 961.4C1044.8 961.267 1062.4 959.4 1068.67 956.867C1072.4 955.533 1072.4 955.267 1070 954.333C1068.53 953.667 1064.53 953.133 1061.2 953.133C1055.33 953 1055.07 952.867 1055.73 949.667L1056.27 946.333H1094.53C1153.6 946.2 1170.67 943.667 1159.47 936.333C1156.67 934.467 1153.87 934.333 1137.73 935.533C1118.8 937 1077.73 935.533 1067.73 933.133C1062 931.8 1056.67 927.667 1051.33 920.6C1048.8 917.4 1046.4 915.667 1044.4 915.667C1040.8 915.667 1040.8 915.4 1043.47 921.8C1046.13 928.2 1045.47 945.933 1042.53 947.8C1039.47 949.667 1023.2 949.133 1016.4 946.867C1007.6 943.933 1003.33 940.467 999.201 933.533C996.267 928.6 995.601 925.4 995.067 914.6C994.534 906.2 994.934 899.8 995.867 896.733C997.334 892.2 997.734 892.067 1005.6 891.133C1010 890.733 1017.07 890.333 1021.33 890.333C1025.47 890.333 1029.87 889.533 1031.2 888.6C1033.33 887 1033.33 886.733 1030.67 884.333C1028 881.933 1025.73 881.667 1007.07 881.667H986.401L983.201 877.133C981.601 874.6 978.401 871.533 976.401 870.2C972.801 867.8 964.001 866.733 962.267 868.6Z" fill="#DDE5EF"/>
</svg>
