<?xml version="1.0" standalone="no"?>
<!DOCTYPE svg PUBLIC "-//W3C//DTD SVG 20010904//EN"
 "http://www.w3.org/TR/2001/REC-SVG-20010904/DTD/svg10.dtd">
<svg version="1.0" xmlns="http://www.w3.org/2000/svg"
 width="1040.000000pt" height="1040.000000pt" viewBox="0 0 1040.000000 1040.000000"
 preserveAspectRatio="xMidYMid meet">

<g transform="translate(0.000000,1040.000000) scale(0.100000,-0.100000)"
fill="#000000" stroke="none">
<path d="M3300 8900 c-25 -4 -70 -17 -100 -29 -30 -12 -65 -21 -78 -21 -61 0
-226 -111 -307 -206 -90 -107 -126 -168 -128 -224 -2 -45 -5 -51 -39 -70 -22
-12 -41 -32 -44 -46 -7 -28 12 -230 27 -286 9 -34 14 -39 62 -53 223 -65 925
-205 1027 -205 31 0 57 12 127 59 116 78 232 179 240 209 13 53 -14 47 -109
-25 -159 -120 -160 -120 -177 -55 -26 101 -26 97 26 129 26 17 64 33 84 36 60
9 108 34 129 69 11 18 16 36 12 40 -4 4 -45 -6 -92 -22 -47 -16 -102 -30 -123
-30 -21 0 -79 16 -130 36 -112 43 -145 42 -322 -10 -137 -40 -228 -57 -247
-45 -18 12 43 72 112 111 89 51 200 130 212 151 12 24 -7 40 -37 31 -11 -3
-31 -8 -45 -11 -14 -4 -50 -23 -80 -44 -30 -20 -91 -57 -135 -81 l-80 -43
-115 3 c-63 1 -146 4 -185 5 -68 2 -70 1 -73 -24 -4 -33 7 -37 189 -85 118
-31 149 -43 171 -66 l26 -28 124 2 c84 2 155 -3 223 -15 55 -10 132 -23 170
-30 l70 -12 3 -60 c2 -33 0 -75 -3 -94 l-6 -33 -52 6 c-139 18 -915 182 -930
196 -10 9 -37 177 -37 227 0 33 0 33 223 142 122 60 237 114 256 120 43 14
128 14 227 0 64 -9 80 -8 89 3 7 10 25 13 55 11 l45 -4 -43 40 c-58 53 -137
83 -237 88 l-80 5 -103 -62 c-105 -62 -159 -87 -168 -77 -14 14 36 84 108 152
145 137 287 187 427 151 197 -50 411 -182 658 -405 96 -87 114 -108 128 -152
32 -95 8 -190 -71 -280 -31 -35 -64 -80 -74 -99 -21 -42 -35 -100 -23 -100 4
0 102 96 218 213 239 243 284 275 372 263 45 -7 55 -14 151 -113 260 -267 650
-810 904 -1258 105 -184 133 -213 131 -131 -2 65 -118 270 -357 631 -295 444
-671 905 -804 982 -43 25 -43 25 -83 8 -21 -10 -75 -48 -119 -85 l-81 -67
-122 122 c-217 215 -421 369 -612 461 -153 74 -277 102 -375 84z m-431 -305
c-30 -44 -47 -61 -54 -53 -4 4 73 98 80 98 3 0 -9 -20 -26 -45z m-19 -125 c0
-6 -22 -21 -50 -35 -49 -25 -50 -25 -50 -5 0 15 12 26 42 40 41 18 58 18 58 0z"/>
<path d="M1800 8810 c0 -22 115 -175 161 -214 51 -43 76 -31 65 30 -7 37 -84
131 -143 177 -44 33 -83 36 -83 7z"/>
<path d="M1673 8508 c-25 -12 -30 -42 -11 -55 7 -4 35 -11 63 -16 27 -4 65
-10 82 -14 76 -13 107 21 59 66 -19 18 -39 24 -98 27 -43 2 -82 -1 -95 -8z"/>
<path d="M1775 8223 c-86 -63 -132 -130 -107 -155 13 -13 13 -13 131 55 81 47
116 83 105 110 -11 28 -83 22 -129 -10z"/>
<path d="M4922 7720 c-41 -25 -56 -59 -48 -103 18 -96 138 -120 181 -37 20 38
19 53 -4 81 l-19 24 -25 -24 c-14 -13 -23 -29 -21 -36 8 -19 -14 -29 -31 -15
-23 19 -18 47 14 69 16 11 31 30 34 41 4 16 0 20 -21 20 -15 0 -42 -9 -60 -20z"/>
<path d="M6840 7550 c-171 -22 -386 -132 -499 -255 -117 -129 -173 -240 -179
-361 -8 -144 47 -248 158 -302 l60 -28 -103 -92 c-122 -110 -156 -134 -222
-155 -89 -29 -123 -31 -185 -12 -41 12 -63 15 -75 7 -16 -8 -13 -13 25 -41 54
-39 98 -47 185 -32 132 22 209 73 439 288 94 88 163 133 227 147 41 9 89 -29
124 -98 26 -53 29 -70 30 -150 0 -50 -4 -139 -9 -197 -10 -124 1 -185 45 -252
16 -24 44 -52 63 -62 28 -15 33 -24 32 -49 -2 -48 28 -46 83 7 58 56 79 67
133 67 95 0 141 -66 118 -167 -20 -89 -81 -138 -215 -173 -49 -12 -127 -77
-149 -124 -71 -150 107 -310 258 -231 36 19 36 19 36 -3 0 -26 -11 -34 -27
-20 -12 10 -13 7 -7 -18 62 -263 494 -397 794 -247 114 58 135 92 170 275 6
31 21 69 32 83 12 15 63 46 115 71 233 108 343 337 267 559 -35 106 -124 204
-158 176 -10 -8 -17 -7 -26 4 -11 13 -10 18 7 30 25 17 49 74 58 138 8 51 8
52 52 36 19 -6 30 -17 29 -27 -2 -23 66 -53 149 -65 172 -25 393 73 506 223
176 233 156 532 -51 741 -176 179 -403 217 -630 107 -73 -36 -166 -122 -194
-181 l-17 -38 -70 65 c-85 81 -228 154 -374 192 -164 43 -393 35 -482 -16
l-31 -18 -12 29 c-15 36 -85 101 -137 127 -82 42 -216 59 -343 42z m499 -242
c6 10 51 26 51 19 0 -3 -11 -12 -24 -21 -23 -14 -28 -14 -72 5 -33 15 -43 24
-33 29 8 6 23 0 42 -16 17 -14 33 -21 36 -16z m527 11 c246 -75 413 -232 492
-462 18 -54 32 -101 29 -103 -2 -2 -19 33 -37 78 -18 46 -40 94 -50 108 -9 14
-27 46 -40 72 -38 78 -153 188 -235 225 -117 53 -142 63 -157 63 -17 1 -96 38
-82 39 7 1 43 -8 80 -20z m-354 -84 c-5 -30 -4 -30 -50 -7 l-37 17 45 6 c25 3
46 7 46 7 1 1 -1 -9 -4 -23z m-1055 -42 c-8 -10 -27 -45 -42 -78 -38 -86 -39
-213 -2 -304 l26 -63 -31 28 c-46 44 -68 99 -68 174 0 55 6 78 36 140 19 41
47 87 61 102 28 30 47 30 20 1z m838 -175 c18 -62 19 -190 1 -273 -12 -59 -12
-59 -12 75 0 94 -5 152 -16 191 -18 62 -42 114 -58 124 -5 3 -10 11 -10 16 0
27 81 -87 95 -133z m-171 65 l17 -38 -25 30 c-26 31 -32 45 -18 45 5 0 16 -17
26 -37z m488 -13 c40 -27 91 -66 113 -85 50 -46 30 -36 -49 24 -33 25 -82 57
-108 71 -45 23 -61 40 -39 40 5 0 42 -22 83 -50z m1248 -50 c30 -47 32 -54 26
-108 -4 -31 -12 -72 -18 -90 -12 -39 -88 -137 -138 -178 l-35 -29 32 38 c18
21 48 53 67 72 42 42 59 91 60 175 1 54 -4 77 -29 127 -38 75 -15 71 35 -7z
m-2345 -89 c0 -105 -13 -113 -22 -13 -4 47 7 112 19 112 2 0 3 -45 3 -99z
m285 74 c-7 -9 -15 -13 -18 -10 -3 2 1 11 8 20 7 9 15 13 18 10 3 -2 -1 -11
-8 -20z m-148 -73 c-3 -57 0 -87 12 -117 13 -30 13 -36 3 -25 -19 20 -47 95
-47 126 0 23 25 94 33 94 2 0 2 -35 -1 -78z m849 61 c13 -16 12 -17 -3 -4 -10
7 -18 15 -18 17 0 8 8 3 21 -13z m-547 -51 c8 -15 18 -45 22 -67 7 -38 7 -38
-12 -19 -68 69 -77 83 -64 99 19 23 38 18 54 -13z m908 -84 c48 -61 26 -44
-32 25 -30 34 -41 51 -26 37 15 -14 41 -42 58 -62z m-1105 50 c-3 -8 -6 -5 -6
6 -1 11 2 17 5 13 3 -3 4 -12 1 -19z m1799 -61 c4 -26 -1 -40 -26 -70 -39 -46
-70 -65 -70 -42 0 8 6 15 14 15 20 0 59 57 60 89 0 14 -3 40 -7 56 -8 30 -8
30 8 7 9 -12 19 -37 21 -55z m450 -67 c-14 -44 -33 -95 -42 -113 -42 -82 -163
-173 -258 -193 -91 -20 -236 -17 -236 5 0 3 46 6 103 6 99 0 106 2 179 38 54
26 92 54 131 97 58 62 121 175 134 238 4 20 9 29 11 20 2 -9 -8 -53 -22 -98z
m-1184 -94 c42 -71 91 -186 84 -194 -5 -4 -27 44 -51 108 -16 45 -72 137 -90
147 -7 5 -15 19 -19 33 l-7 25 21 -25 c12 -13 40 -55 62 -94z m-1015 61 c40
-59 37 -71 -6 -28 -23 23 -39 46 -36 51 10 16 19 11 42 -23z m1768 -67 c-7
-12 -49 -34 -82 -44 -18 -6 -23 -3 -23 11 0 14 8 19 31 21 18 1 39 7 48 12 21
12 34 12 26 0z m575 -99 c-57 -93 -169 -177 -279 -211 -76 -24 -102 -25 -46
-3 97 39 227 127 288 195 34 37 63 68 64 68 2 0 -11 -22 -27 -49z m-1345 -85
c8 -43 14 -103 14 -134 -1 -54 -2 -51 -20 48 -18 104 -24 178 -14 168 3 -3 12
-40 20 -82z m-434 -271 c96 -170 99 -181 26 -82 -61 84 -117 202 -117 247 1
35 1 34 18 -15 10 -28 43 -96 73 -150z m973 -447 c-9 -79 -24 -116 -58 -146
-19 -16 -41 -43 -50 -58 -9 -17 -15 -22 -16 -13 0 8 12 31 26 50 32 41 84 152
84 177 0 16 8 32 16 32 2 0 1 -19 -2 -42z m-854 -19 c-6 -19 -30 -56 -55 -84
l-45 -50 52 86 c29 48 54 86 55 85 1 -1 -2 -18 -7 -37z m-258 -141 c-6 -6 -15
-8 -19 -4 -4 4 -1 11 7 16 19 12 27 3 12 -12z m82 -65 c-32 -48 -31 -47 -37
-24 -4 15 3 26 27 40 17 12 32 21 33 21 1 0 -9 -17 -23 -37z m-175 -18 c36
-41 46 -73 37 -118 -8 -41 -53 -87 -84 -87 -39 0 -87 36 -107 81 -19 40 -19
42 0 77 21 39 77 82 105 82 10 0 32 -16 49 -35z m1016 -84 c3 -5 1 -12 -5 -16
-5 -3 -10 1 -10 9 0 18 6 21 15 7z m-470 -70 c6 -34 4 -42 -6 -39 -9 3 -15 23
-17 54 -4 60 13 49 23 -15z m409 -15 c-3 -9 -10 -13 -16 -10 -5 3 -4 12 3 20
15 18 22 13 13 -10z m-236 -6 c16 -26 6 -46 -14 -29 -15 12 -20 49 -6 49 4 0
13 -9 20 -20z m-299 -67 c1 -7 -3 -13 -9 -13 -5 0 -10 15 -9 33 0 27 2 29 9
12 5 -11 9 -26 9 -32z m205 -51 c22 -24 25 -31 13 -41 -12 -9 -20 -5 -40 23
-23 30 -26 46 -7 46 3 0 19 -13 34 -28z m306 3 c0 -8 -7 -15 -15 -15 -16 0
-20 12 -8 23 11 12 23 8 23 -8z m-441 -65 l32 -40 -25 0 c-16 0 -32 10 -45 29
-44 62 -11 71 38 11z m393 -63 c-17 -18 -30 -22 -54 -19 l-31 5 24 18 c13 10
37 19 53 19 l29 0 -21 -23z"/>
<path d="M4089 7503 c-6 -84 48 -164 302 -455 253 -289 415 -546 534 -843 39
-98 59 -137 85 -160 l23 -20 -6 55 c-7 75 -63 223 -152 405 -102 208 -231 398
-401 590 -34 39 -107 140 -163 225 -125 190 -151 220 -191 220 -21 0 -30 -5
-31 -17z"/>
<path d="M2730 7322 c-165 -67 -300 -133 -319 -155 -14 -18 -15 -296 -5 -1063
l7 -471 -69 -6 c-38 -4 -221 -10 -407 -13 l-338 -7 -70 -49 c-38 -27 -97 -75
-131 -107 l-61 -58 12 -214 c40 -720 60 -1608 61 -2721 l0 -618 -182 -1 c-325
-1 -349 -3 -370 -29 -10 -12 -15 -26 -12 -31 3 -5 110 -9 237 -9 165 0 239 -4
257 -13 33 -16 60 -72 60 -124 l0 -42 -54 -11 c-29 -6 -61 -17 -71 -24 -16
-11 -15 -14 16 -26 28 -12 231 -14 1234 -13 1866 2 2079 5 2101 24 11 9 37 22
59 29 90 28 349 175 413 234 l24 21 791 -3 c802 -4 847 -2 847 32 0 45 20 44
-862 44 -768 0 -937 -4 -978 -22 -13 -5 -15 52 -15 486 0 271 -6 628 -13 793
-31 721 -63 1334 -73 1380 -6 28 -10 62 -10 77 0 16 -7 32 -17 37 -10 5 -204
11 -432 13 l-416 3 -113 -74 c-109 -71 -115 -74 -140 -60 -53 30 -79 113 -105
347 -27 228 -37 401 -46 782 -25 982 -35 1183 -69 1345 -22 105 -31 92 97 141
46 18 100 45 121 62 l38 31 7 -187 c4 -103 9 -225 12 -272 15 -287 37 -1060
44 -1505 7 -524 14 -615 43 -586 16 16 15 1176 -1 1671 -24 734 -38 926 -66
942 -8 5 -13 15 -9 23 3 10 -6 20 -29 29 -27 12 -122 16 -444 21 l-409 6 -145
-59z m338 -7 c-2 -3 -80 -36 -172 -75 -165 -69 -170 -70 -254 -70 -78 1 -85 2
-68 15 15 11 232 99 316 128 19 7 185 9 178 2z m368 -342 c-4 -65 0 -318 9
-563 33 -966 102 -4306 92 -4490 -9 -161 -48 -310 -84 -324 -60 -24 -900 -33
-922 -11 -6 6 -13 637 -20 1655 -6 905 -16 1924 -22 2265 -6 341 -9 807 -7
1035 3 377 5 418 21 451 12 23 28 40 45 44 15 4 185 9 377 11 308 3 359 5 425
22 41 11 79 20 84 21 5 1 6 -49 2 -116z m-1681 -1431 c-6 -5 -42 -34 -82 -65
-72 -57 -72 -57 -140 -57 l-68 1 35 30 c19 17 57 46 85 65 44 30 57 34 114 34
36 0 61 -4 56 -8z m544 -227 c57 -52 79 -112 91 -251 26 -321 48 -2373 31
-2959 -12 -413 -27 -496 -96 -518 -65 -21 -819 -6 -842 17 -1 1 -4 526 -7
1166 -5 1140 -11 1453 -41 2070 -8 168 -15 349 -15 402 l0 98 408 3 c224 1
413 3 419 5 7 1 30 -14 52 -33z m1781 -719 c0 -2 -51 -42 -112 -87 -113 -83
-113 -83 -188 -90 -41 -4 -76 -6 -78 -4 -3 3 228 158 258 172 23 11 120 18
120 9z m684 -241 c4 -104 9 -203 11 -220 2 -16 7 -86 10 -155 3 -69 19 -399
35 -735 21 -423 30 -724 31 -985 1 -206 4 -386 8 -400 6 -20 -2 -33 -53 -82
-35 -35 -68 -58 -81 -58 -34 0 -65 41 -76 101 -5 30 -14 266 -19 524 -5 259
-14 596 -19 750 -6 154 -13 489 -17 745 -3 256 -10 481 -14 500 -7 34 -6 37
84 121 50 48 92 86 92 85 1 0 5 -86 8 -191z m-250 -515 c17 -541 23 -810 31
-1460 3 -245 8 -523 11 -619 l5 -174 -373 9 c-205 5 -418 7 -473 6 l-100 -3
-1 278 c0 254 -24 1570 -40 2198 l-7 260 249 -3 c137 -1 344 1 459 5 138 5
212 5 216 -2 4 -5 14 -228 23 -495z"/>
<path d="M2850 4848 c-81 -61 -130 -108 -130 -124 0 -6 6 -17 13 -23 11 -8 18
-6 32 9 9 10 50 40 89 66 79 50 100 75 91 105 -9 28 -22 23 -95 -33z"/>
<path d="M2960 4612 c-25 -26 -80 -75 -122 -110 -76 -62 -99 -95 -80 -114 11
-11 221 126 265 173 29 31 35 67 15 87 -19 19 -30 14 -78 -36z"/>
<path d="M1958 3771 c-132 -131 -188 -193 -188 -209 0 -12 5 -22 10 -22 6 0
41 28 78 63 38 34 113 101 169 149 55 48 113 102 128 122 28 37 31 80 5 82 -8
1 -99 -82 -202 -185z"/>
<path d="M2033 3501 c-7 -11 -48 -47 -92 -80 -77 -58 -80 -63 -69 -86 6 -14
14 -24 17 -23 3 2 26 17 51 35 25 18 68 47 95 65 52 34 67 66 45 94 -17 19
-33 18 -47 -5z"/>
<path d="M4063 2258 c-11 -13 -48 -47 -82 -76 -44 -38 -61 -60 -61 -78 l0 -25
37 26 c21 14 41 25 46 25 4 0 32 15 62 34 61 39 75 68 49 97 -22 24 -26 24
-51 -3z"/>
<path d="M4850 6750 c-22 -22 -24 -29 -11 -49 8 -12 14 -12 41 -1 27 11 34 11
47 -3 19 -19 9 -37 -22 -37 -31 0 -41 -18 -21 -38 21 -21 82 -19 107 4 21 19
25 64 8 96 -12 23 -66 48 -104 48 -14 0 -34 -9 -45 -20z"/>
<path d="M6552 6618 c-14 -14 -16 -57 -3 -76 4 -7 37 -23 72 -35 49 -17 68
-30 86 -57 43 -67 51 -71 78 -43 54 53 -87 223 -185 223 -20 0 -41 -5 -48 -12z"/>
<path d="M6455 6386 c-94 -41 -134 -150 -70 -192 33 -22 73 -11 123 32 l41 35
40 -26 c38 -26 81 -28 81 -5 0 13 -128 157 -146 164 -22 9 -35 7 -69 -8z m15
-91 c-13 -14 -26 -22 -29 -19 -3 3 5 14 18 25 33 27 39 24 11 -6z"/>
<path d="M5771 6064 c-14 -71 -14 -317 0 -403 46 -283 260 -520 553 -610 86
-27 223 -30 233 -5 11 29 -22 46 -106 55 -279 31 -525 244 -606 523 -11 38
-21 132 -29 267 -12 224 -25 272 -45 173z"/>
<path d="M6106 5735 c-37 -48 -70 -60 -118 -44 -42 14 -68 1 -68 -32 0 -42
119 -65 179 -34 47 24 83 73 79 109 -4 46 -37 47 -72 1z"/>
<path d="M6758 4960 c-60 -32 -138 -118 -172 -189 -28 -60 -31 -75 -31 -166 0
-91 3 -105 30 -160 42 -85 127 -168 188 -185 33 -9 58 -10 75 -4 44 16 37 33
-24 60 -112 49 -186 153 -186 258 1 102 32 169 117 251 74 72 91 104 74 137
-12 23 -24 22 -71 -2z"/>
<path d="M6915 4717 c-24 -59 -27 -86 -15 -139 16 -67 39 -108 62 -108 26 0
29 14 17 67 -6 26 -11 80 -11 118 -1 97 -26 126 -53 62z"/>
<path d="M6759 4718 c-6 -12 -14 -50 -17 -84 -4 -50 0 -74 18 -118 25 -61 55
-95 71 -79 6 6 6 19 -1 38 -17 46 -30 170 -21 202 15 53 -25 87 -50 41z"/>
<path d="M7528 4683 c-21 -8 -38 -19 -38 -23 0 -4 30 -13 68 -19 174 -30 310
-86 424 -176 181 -142 415 -513 594 -943 150 -360 322 -935 379 -1272 17 -99
32 -150 45 -150 4 0 15 9 25 20 38 42 7 229 -105 640 -96 350 -206 658 -339
947 -143 312 -361 649 -508 783 -179 164 -415 248 -545 193z"/>
<path d="M6679 4105 c-37 -57 -57 -98 -153 -314 -237 -532 -393 -1098 -399
-1447 -2 -125 7 -150 41 -116 14 14 21 39 26 93 25 273 63 474 145 754 89 303
137 438 256 714 98 228 116 278 113 313 l-3 43 -26 -40z"/>
<path d="M8085 4085 c-42 -22 -55 -43 -55 -86 0 -65 79 -123 142 -104 42 13
68 46 68 86 0 43 -18 62 -57 57 -28 -3 -28 -5 -16 -50 7 -23 -22 -34 -53 -20
-39 19 -32 57 16 84 46 26 49 33 18 42 -31 8 -29 8 -63 -9z"/>
<path d="M6908 3314 c-26 -14 -47 -58 -34 -71 3 -3 22 2 42 13 34 18 36 18 49
1 19 -27 8 -45 -34 -57 -37 -10 -67 -43 -55 -62 4 -6 27 -8 57 -5 41 3 56 11
79 36 45 50 32 117 -27 146 -40 18 -43 18 -77 -1z"/>
<path d="M7610 3164 c-6 -14 -7 -37 -4 -52 11 -44 83 -194 112 -232 15 -19 37
-64 50 -100 26 -75 66 -140 86 -140 25 0 46 12 46 25 0 7 -11 32 -24 56 -13
24 -47 112 -76 194 -77 227 -81 236 -101 256 -29 29 -77 25 -89 -7z"/>
<path d="M8573 2833 c-29 -6 -73 -58 -73 -86 0 -68 86 -124 150 -97 52 22 78
101 46 143 -28 36 -66 13 -66 -40 0 -26 -4 -33 -19 -33 -10 0 -24 7 -31 15
-10 12 -7 20 19 44 35 32 38 46 15 55 -9 3 -16 5 -17 5 -1 -1 -12 -4 -24 -6z"/>
<path d="M8057 2393 c-12 -11 -8 -23 7 -23 22 0 38 -27 31 -51 -7 -22 -10 -22
-144 -16 -75 3 -192 13 -261 22 -79 11 -167 16 -242 13 -110 -4 -120 -6 -191
-41 -177 -87 -391 -374 -404 -541 -5 -55 -3 -66 16 -85 45 -45 110 -16 169 77
32 49 67 152 53 152 -9 0 -48 -43 -115 -124 -85 -104 -67 14 25 164 66 107
212 256 289 295 73 37 194 44 374 21 71 -9 213 -21 314 -26 102 -5 186 -11
188 -13 12 -11 26 -172 19 -221 l-7 -58 -64 -29 c-75 -34 -135 -37 -242 -13
-57 13 -81 14 -123 5 -83 -18 -118 -40 -218 -135 -52 -50 -96 -85 -98 -79 -2
6 12 44 33 85 26 52 58 94 110 145 41 40 74 77 74 82 0 16 -69 -6 -121 -39
-27 -18 -61 -47 -73 -64 -33 -43 -82 -143 -95 -194 -13 -45 -24 -51 -58 -27
-21 15 -21 17 -6 68 24 83 68 161 128 228 30 34 55 70 55 81 0 17 -2 18 -29 3
-16 -8 -57 -40 -90 -71 -83 -76 -146 -200 -146 -284 l0 -58 -27 20 c-41 29
-49 49 -36 94 21 79 90 198 149 259 42 44 59 69 59 88 0 15 -4 27 -9 27 -15 0
-105 -75 -144 -120 -20 -23 -56 -83 -81 -132 -54 -105 -62 -177 -26 -236 31
-50 56 -56 245 -54 303 3 473 43 258 61 l-75 6 79 76 c105 103 150 115 301 84
59 -12 84 -13 135 -4 34 6 92 13 128 16 l66 5 24 -43 c18 -32 37 -51 74 -69
47 -23 59 -25 190 -23 151 1 283 15 330 34 28 10 28 12 10 19 -11 5 -41 9 -66
9 -44 1 -46 2 -41 26 l4 25 287 0 c443 1 571 20 487 75 -21 14 -42 15 -163 6
-142 -11 -450 0 -525 18 -43 10 -83 41 -123 94 -19 24 -37 37 -52 37 -27 0
-27 2 -7 -46 20 -48 15 -181 -7 -195 -23 -14 -145 -10 -196 7 -66 22 -98 48
-129 100 -22 37 -27 61 -31 142 -4 63 -1 111 6 134 11 34 14 35 73 42 33 3 86
6 118 6 31 0 64 6 74 13 16 12 16 14 -4 32 -20 18 -37 20 -177 20 l-155 0 -24
34 c-12 19 -36 42 -51 52 -27 18 -93 26 -106 12z"/>
</g>
</svg>
