<svg width="1279" height="832" viewBox="0 0 1279 832" fill="none" xmlns="http://www.w3.org/2000/svg">
<path d="M756.067 3.06666C751.4 7.33332 749.667 22.2667 752.867 29.8667C754.067 32.6667 755.667 34.6667 756.6 34.4C757.534 34 758.867 30 759.8 25.2C760.6 20.5333 762.067 13.8667 763 10.5333C765.934 0.39999 762.6 -3.06668 756.067 3.06666Z" fill="#DDE5EF"/>
<path d="M727.533 15.3331C727.133 16.3997 729.133 21.0664 731.933 25.5997C737.667 34.6664 743.133 39.0664 745.8 36.3997C748.467 33.7331 745.8 27.4664 738.867 20.2664C732.067 13.1997 728.867 11.7331 727.533 15.3331Z" fill="#DDE5EF"/>
<path d="M709.4 47.4665C705.4 49.5998 704.6 51.7331 707.4 52.6665C708.2 52.9331 715 53.4665 722.467 53.8665C732.467 54.5331 736.467 54.2665 738.2 52.9331C740.467 51.1998 740.467 50.9331 737 48.2665C733.933 45.8665 731.667 45.3331 723.133 45.3331C716.733 45.4665 711.667 46.1331 709.4 47.4665Z" fill="#DDE5EF"/>
<path d="M784.601 75.3333C782.601 79.5999 782.601 97.5999 784.334 104.267C785.134 107.067 787.801 112 790.334 115.2L794.867 121.2L791.001 120.533C785.801 119.467 778.201 120.933 775.667 123.467C772.867 126.267 773.134 132.4 776.334 138.667C780.734 147.2 799.134 160 810.067 162C812.734 162.533 815.001 163.6 815.001 164.267C815.001 165.067 813.667 165.333 812.067 164.8C790.201 158.933 773.267 158.8 759.267 164.4C738.867 172.8 721.667 186.8 715.667 200.133C713.667 204.667 710.201 217.467 707.934 228.533C705.667 239.6 703.667 248.933 703.401 249.2C703.134 249.6 698.734 248 693.667 245.733C687.134 242.8 684.334 242.133 684.334 243.333C684.334 246 693.401 253.333 701.134 256.933C709.934 260.933 731.001 266.267 742.467 267.467C753.801 268.667 755.534 270.4 754.601 279.467C753.934 286.133 752.867 291.2 744.867 323.333C740.067 343.2 739.134 362.8 742.734 369.333C750.067 382.8 777.934 385.467 821.267 376.667C849.401 370.933 881.267 359.467 879.934 355.6C879.001 352.4 870.734 353.2 856.734 358C826.601 368.133 799.934 373.333 777.534 373.333C763.801 373.333 756.867 371.867 752.201 368.133C749.801 366.267 749.134 364 748.601 357.467C747.801 347.067 749.401 339.067 758.467 306.533C770.467 263.467 770.201 262.267 750.601 260.267C744.067 259.467 738.601 258.8 738.334 258.4C737.534 257.6 741.534 240.4 743.667 235.067C746.467 228.267 752.067 222.667 755.934 222.667C759.934 222.667 765.534 219.867 768.867 216.133C772.334 212.4 776.201 212.667 786.734 217.2C799.801 222.933 804.334 223.467 808.734 220C810.734 218.4 812.867 217.467 813.667 218C816.067 219.467 820.334 216 820.334 212.533C820.334 203.6 802.867 182.933 793.001 180.133C786.734 178.4 781.667 178.267 779.267 179.867C777.001 181.333 779.001 182.8 787.534 186C791.134 187.333 796.334 190.667 799.267 193.733C808.334 203.067 807.401 204.267 797.001 196.8C786.067 188.8 780.334 187.2 769.001 188.667C762.067 189.467 757.934 192 759.534 194.4C759.934 195.067 764.734 196 770.067 196.4C776.067 196.8 782.067 198.133 785.134 199.733C791.934 203.333 799.934 210.133 798.734 211.333C798.201 211.867 793.801 210.8 789.001 208.8C776.601 203.867 770.201 204.133 763.401 210C760.334 212.533 755.934 215.067 753.401 215.467C751.001 216 747.667 217.2 746.067 218.133C741.534 220.933 736.467 230.8 734.334 240.8C731.667 254 727.267 256.8 714.734 253.333C710.334 252 709.934 251.6 710.867 248.933C711.534 247.2 713.401 239.333 715.001 231.333C718.734 212.8 722.334 201.867 726.601 196.267C731.534 189.733 744.601 180.533 757.667 174.133C768.601 168.8 769.401 168.667 781.667 168.8C795.267 168.933 808.601 171.733 819.667 176.8L826.334 179.733L816.334 179.067C810.867 178.667 804.867 179.067 803.001 179.733L799.667 181.067L803.667 182.667C805.934 183.467 813.667 185.467 821.134 186.933C832.867 189.333 835.001 189.467 838.467 187.867C846.467 184 842.467 176.667 829.134 171.2C825.667 169.733 823.001 167.733 823.001 166.667C823.001 160.267 844.601 137.733 857.534 130.533C869.934 123.6 873.667 118.933 865.401 120.667C854.601 123.067 835.267 135.733 824.734 147.2C819.667 152.8 818.601 153.333 813.001 153.333C800.201 153.333 784.467 142.267 781.001 130.8L780.067 127.6L789.801 128.267C796.467 128.667 802.601 130.133 808.334 132.533C819.134 137.2 821.667 137.467 823.001 134C823.801 132 822.734 129.2 819.267 123.467C813.401 114 812.067 103.333 815.534 91.3333C817.801 83.7332 817.801 83.7332 820.601 86.1332C822.201 87.5999 826.201 92.7999 829.534 97.9999C837.134 109.867 845.267 118.667 848.467 118.667C851.801 118.667 851.001 116.933 839.267 98.2666C824.867 75.4666 819.001 70.6666 813.401 76.9333C809.934 80.7999 805.667 96.9333 805.667 106.133C805.667 112.933 805.267 114.667 803.534 114.667C796.201 114.667 791.001 105.333 789.934 90.3999C789.134 78.5333 789.267 78.5333 799.401 85.0666C807.001 90.1332 806.734 87.7332 799.001 79.4666C791.134 71.0666 787.001 69.9999 784.601 75.3333Z" fill="#DDE5EF"/>
<path d="M984.867 97.8665C970.201 102.533 951.801 115.6 940.334 129.733C921.267 153.066 919.134 175.866 935.001 185.733C939.134 188.4 941.401 188.667 955.001 188.533C967.534 188.4 972.467 187.733 982.334 184.8C996.467 180.533 1016.73 171.066 1022.07 166.133C1024.47 163.866 1025.93 163.333 1026.33 164.4C1026.6 165.2 1027.8 169.466 1028.87 173.6C1031.4 182.667 1037.93 191.6 1045 195.733C1049.4 198.133 1051.93 198.667 1059.27 198.4C1066.73 198 1068.2 198.4 1067.67 200C1064.47 210.667 1063.53 224.667 1065.13 235.066C1066.33 242 1073.4 253.333 1078.87 256.933C1082.47 259.466 1085.27 260 1092.73 260C1101.67 260 1102.2 260.133 1107.13 265.2C1111.4 269.466 1112.33 271.333 1112.33 275.6C1112.33 282.4 1107.93 288.933 1101.13 292.4C1097.4 294.4 1092.47 295.2 1082.6 295.733L1069.13 296.4L1073.27 299.866L1077.53 303.333L1070.33 307.2C1056.07 314.533 1037 333.066 1026.6 349.466C1020.6 358.933 1017.8 365.466 1015.8 375.333C1014.2 382.933 1013.93 383.333 1009.27 384.266C1002.73 385.6 989.934 392.933 989.001 395.866C988.201 398.533 989.401 402.666 991.001 402.666C991.667 402.666 994.067 401.066 996.467 399.066C1001.27 395.066 1009.13 394.133 1012.73 397.2C1013.93 398.133 1016.6 402.133 1018.87 406C1023.4 414 1029.93 419.733 1043.93 427.866C1064.07 439.733 1069.8 451.066 1075.53 490.8C1076.73 498.667 1077.67 509.333 1077.67 514.666C1077.67 520 1079.13 530.4 1080.87 538.4C1085.93 560.4 1088.07 573.333 1090.87 599.333C1095.93 644.666 1096.73 660.8 1096.87 708C1097 740.667 1097.53 756.133 1098.47 757.867C1099.8 760.133 1100.2 759.6 1101.53 753.333C1104.2 741.2 1106.07 699.2 1105.13 672C1103.93 631.733 1098.33 573.333 1094.07 556.266C1093.53 553.733 1093.93 553.866 1097.93 557.867C1103.93 563.867 1108.6 565.066 1114.6 562.133C1119.93 559.6 1124.2 551.466 1124.33 543.333L1124.47 538L1128.47 546.266C1134.87 559.6 1143.27 564.533 1150.73 559.2C1154.73 556.4 1158.07 549.466 1161.53 536.133C1166.47 517.733 1169 514.666 1172.33 522.666C1173.27 524.933 1175.8 529.2 1177.8 532C1182.07 537.866 1186.73 538.933 1192.07 535.2C1200.87 529.066 1201.13 516.133 1193.53 475.333C1189.13 451.466 1187.93 442 1187.4 424.666L1186.73 403.333L1196.73 364C1212.07 303.6 1216.73 274.133 1216.73 238.667C1216.6 176.266 1194.73 134.933 1150.87 114C1128.87 103.6 1099 102.266 1073 110.8C1063.53 113.733 1053.8 121.066 1056.6 122.8C1057.53 123.466 1057.8 124 1057.27 124C1056.6 124 1052.47 120.8 1048.07 116.8C1029.8 100.266 1003 92.2665 984.867 97.8665ZM972.334 114.4C960.334 122.666 949.267 137.866 944.334 153.2C942.067 160.266 941.534 164.8 941.934 171.2C942.467 179.2 942.201 179.733 940.067 178.533C928.067 172.133 932.734 151.066 950.067 132.4C957.667 124.266 972.734 111.866 974.867 112.133C975.267 112.133 974.201 113.2 972.334 114.4Z" fill="#DDE5EF"/>
<path d="M973.667 190.533C971.8 194.266 971.667 194.133 978.334 198.666C981.667 200.933 984.334 203.866 984.334 205.2C984.334 207.6 969.934 218.933 964.2 221.066C957.4 223.6 955.534 218.8 960.334 210.933C963.8 205.333 963.8 201.333 960.334 201.333C956.867 201.333 951 211.466 951 217.6C951 220.266 952.2 223.733 953.667 225.6L956.334 229.066L950.867 232.8C943.8 237.733 941.4 242.266 943 248C944.734 254.133 948.067 257.333 952.6 257.333C957 257.333 957.134 256.666 953.667 250.933C952.2 248.533 951 245.733 951 244.666C951 242.8 964.2 232.266 978.334 222.8C989.134 215.6 993.667 210.666 993.667 206.4C993.667 200.4 990.2 195.066 983.934 191.333C977 187.333 975.534 187.2 973.667 190.533Z" fill="#DDE5EF"/>
<path d="M947.4 197.6C941.4 203.867 929.267 223.733 924.6 235.067C910.6 268.667 915.133 303.867 936.467 327.2L943.267 334.667L937.267 341.2C929.533 349.467 925.267 358 922.467 371.067C920.2 381.2 920.467 388.4 923.267 390.133C925 391.2 927 388.267 927 384.4C927 382.933 928.467 377.2 930.333 371.867C933.667 361.867 939 354.8 946.2 351.067C950.6 348.8 953.267 349.2 967 354.133C975.933 357.333 978.2 357.6 988.333 356.8C1007.27 355.333 1015.67 351.867 1004.73 350C968.467 343.733 955.267 337.6 941.933 320.667C926.867 301.467 921.8 278.267 927.533 254C930.333 242.133 939 224 949.4 208.133C953.933 201.333 957.667 195.2 957.667 194.533C957.667 191.733 951.133 193.733 947.4 197.6Z" fill="#DDE5EF"/>
<path d="M1011.4 205.333C1007.67 206.8 1007.27 212.667 1010.73 214.4C1011.93 215.067 1015.67 216 1018.87 216.4C1023.27 216.933 1025.8 218.267 1029.4 222C1034.33 227.067 1039.27 227.867 1040.07 223.733C1040.73 220.4 1031.8 211.333 1023.93 207.467C1016.6 203.733 1015.8 203.6 1011.4 205.333Z" fill="#DDE5EF"/>
<path d="M989 226.133C980.867 234.933 981.534 246.4 990.467 250.133C996.2 252.533 999.534 252.533 1007.93 250C1016.47 247.467 1020.87 244.133 1019.67 240.933C1018.47 238 1016.6 238 1009.53 241.333C994.6 248 985.267 241.333 995.267 231.067C998.734 227.467 999.267 226.133 998.2 224.4C995.8 220.533 993.667 220.933 989 226.133Z" fill="#DDE5EF"/>
<path d="M670.6 256.933C664.867 270.266 660.333 297.866 657.667 335.333C653.933 387.866 663.267 426.666 684.467 446C707.267 466.933 750.333 477.466 795.667 473.466C820.2 471.2 841.133 465.866 839.933 462.133C839.133 459.733 828.6 459.733 811.667 462.133C792.733 465.066 762.067 465.333 746.333 462.8C712.6 457.333 687.933 443.066 677.933 423.2C663.267 394.266 660.733 353.333 669.667 289.333C672.467 268.933 674.067 252 673.267 252C673 252 671.8 254.266 670.6 256.933Z" fill="#DDE5EF"/>
<path d="M952.334 288.666C949.801 291.733 951.801 294.533 958.468 297.466C963.001 299.466 965.934 300 969.534 299.333C976.734 298 981.668 294.666 981.668 291.066C981.668 287.466 978.868 287.066 972.201 289.866C967.134 292 961.268 291.333 958.868 288.533C956.868 286.133 954.468 286.133 952.334 288.666Z" fill="#DDE5EF"/>
<path d="M900.601 396.667C896.201 399.067 891.668 406.267 888.335 416.133C883.935 429.333 881.935 432.133 838.068 484.933C815.401 512.133 802.068 533.733 797.001 551.2C794.601 559.333 795.401 562 799.801 561.067C801.401 560.8 804.068 556.133 807.935 547.467C815.135 530.8 826.335 514.133 847.135 488.667C885.135 442.267 899.401 420.4 903.001 403.333C903.801 399.2 904.335 395.6 904.068 395.467C903.935 395.2 902.335 395.867 900.601 396.667Z" fill="#DDE5EF"/>
<path d="M143.8 434.533C141.933 438.8 140.333 443.066 140.333 443.866C140.333 446.533 137.933 445.466 126.2 437.733C117.133 431.866 113.4 430.133 109.133 430.133C104.067 430 103.667 430.266 102.067 434.8C101.267 437.466 99.8 445.866 99 453.466C98.2 461.066 97.2667 468 97 468.933C96.6 470 93.2667 469.066 86.3333 465.866C74.7333 460.533 67.9333 460.133 67.2667 464.8C66.2 472.533 78.7333 494.533 92.0667 508.4C107.933 524.8 122.733 532.266 139.133 532.266L149.267 532.4L157.667 544.933C171.8 566 184.333 597.066 192.867 632.4C197.4 651.066 199.4 665.6 201 693.333C201.8 706.4 204.6 717.333 207.133 717.333C209.267 717.333 210.067 707.066 209.267 689.466C206.733 634.266 189.4 574.666 165.4 539.2L158.2 528.266L162.6 524.8C177 513.2 180.2 483.333 170.867 446C167.533 432.8 165 428.4 162.067 430.8C159.667 432.933 160.2 445.2 163.667 463.333C166.6 478.666 165.8 492 161.267 501.6C155.133 515.066 146.733 520.4 132.2 520.4C120.6 520.4 112.467 516 98.8667 502.666C89 493.066 77.6667 477.466 77.6667 473.733C77.6667 471.466 77.2667 471.333 88.7333 476C94.3333 478.133 99.4 480 100.333 480C102.867 480 105.267 471.866 107 457.6C108.6 443.066 109.267 440 111 440C111.533 440 117.667 443.866 124.733 448.666C139 458.266 143 459.2 146.6 453.866C149.133 449.866 151 426.666 148.733 426.666C147.933 426.666 145.8 430.133 143.8 434.533Z" fill="#DDE5EF"/>
<path d="M557.8 438.667C528.6 444.8 461.8 496.667 382.467 574.667C323.667 632.667 287.933 674.933 286.067 688.933C284.867 697.733 293.133 710.533 310.733 727.333L319.4 735.733L310.333 751.467C300.733 768.4 294.867 776.533 291 778.667C289.667 779.467 278.067 781.2 265.4 782.667C252.733 784.133 237.533 786.4 231.667 787.6C222.733 789.333 215.667 789.6 188.867 788.933C162.6 788.267 156.2 788.4 154.2 790C152.867 790.933 152.067 792.133 152.467 792.667C153.667 793.733 182.2 795.867 196.867 796C208.467 796 208.6 796 207.667 798.933C207.133 800.667 206.6 804.4 206.467 807.2C206.333 811.733 207 812.933 210.6 815.467L214.867 818.267L203.933 819.2C187.667 820.533 187.667 821.867 204.333 824C217.933 825.733 314.867 827.467 322.067 826.133C325.933 825.467 327 824.667 326.467 823.2C325.4 820.4 329.4 813.067 342.333 793.333C348.333 784.133 354.733 774.133 356.467 771.067L359.667 765.6L372.333 772.8C396.333 786.533 409.267 789.467 419.267 783.6C428.2 778.4 454.333 750.667 483.667 715.2C498.333 697.6 518.2 673.6 527.933 661.867C537.667 650.267 549.667 636.267 554.6 630.8L563.667 620.933L595.8 656.8C696.6 769.2 757.667 822 796.6 830.133C805 831.867 811.8 832 847.667 830.667C870.467 829.867 891.667 828.8 895 828.267L901 827.2L895 826C891.667 825.467 882.2 824.533 873.8 824.133L858.6 823.333L864.467 820.133C889 806.8 912.2 781.867 925 755.467C931.4 742 939 720.667 939 715.733C939 711.6 936.6 702.133 932.733 690.933C927.8 676.8 909.133 654.267 885.267 633.733C855.267 607.867 812.333 576 807.267 576C805.4 576 801.267 578.267 797.533 581.467L791 586.933L782.733 580.933C774.6 575.2 767.667 569.333 723.667 531.333C650.2 467.733 606.6 441.067 571.667 438.133C567.267 437.733 561 438 557.8 438.667ZM330.6 745.2C337.933 750.533 341.267 755.2 343.667 763.2L345.667 769.867L341.133 777.333C338.733 781.333 334.067 789.6 331 795.6C326.867 803.733 324.6 806.667 322.733 806.667C321.267 806.667 313.933 808 306.6 809.6C294.467 812.267 289.267 812.667 259.667 812.533C233.8 812.533 225.133 812.133 221 810.667C210.2 806.667 217 800.667 237.133 796.267C249.533 793.6 255.267 792.667 282.867 789.333C295.933 787.733 298.467 786.4 305.533 776.933C311.667 768.8 323 747.333 323 743.733C323 740.4 324.333 740.667 330.6 745.2ZM319.667 820C319 822.133 318.067 822.667 315.933 822.133C314.333 821.733 310.333 821.333 307 821.2C303.667 821.2 301.933 820.8 303 820.4C305.533 819.333 319.533 816.4 320.067 816.8C320.333 816.933 320.2 818.4 319.667 820Z" fill="#DDE5EF"/>
<path d="M260.334 463.867C257.8 468.667 259.8 493.6 263.267 500.267C265.534 504.667 270.2 502.933 280.467 494C291.4 484.533 293.267 485.067 288.334 496.533C286.867 500 285.267 505.2 284.867 508C284.067 512.8 284.334 513.333 287.534 514.133C289.534 514.533 293.534 514.667 296.467 514.267C302.467 513.467 302.734 514.133 299 522.4C296.067 528.8 282.867 543.333 277.267 546.133C275.267 547.2 270.6 548.667 266.867 549.333C257.534 551.2 250.867 548.933 244.734 542.267L240.067 536.933L240.6 522.8C241.134 511.867 242.2 506 245.267 496.667C249.934 482.8 252.734 472 251.934 471.067C250.467 469.6 241.534 486.667 237.667 498.4C234.467 507.733 233.134 514.667 232.734 523.333C231.934 537.6 233.534 544.933 239 551.2L243 555.6L237.8 566.8C231.8 580 225.4 599.333 222.6 613.333C217.4 638.933 216.467 667.733 220.467 676.533L222.334 680.4L223.134 677.2C223.667 675.467 224.067 668.4 224.2 661.6C224.467 636.267 230.334 608.133 242.067 576.667L248.067 560.8L259.134 560.667C269.267 560.667 271.134 560.267 279 556C295.4 547.2 319 520.4 319 510.533C319 506 317.134 505.333 305.534 505.333C300.467 505.333 296.334 504.8 296.334 504.267C296.334 503.6 297.8 498.667 299.667 493.333C303.667 481.6 303.8 478.533 300.6 475.6C295.4 470.933 290.2 472.8 278.467 483.6C274.2 487.6 270.467 490.667 270.334 490.4C270.067 490.133 269.267 484.933 268.334 478.933C266.2 463.067 263.534 458 260.334 463.867Z" fill="#DDE5EF"/>
<path d="M991.401 536.933C991.668 543.333 991.268 546.133 990.468 545.333C987.668 542.533 987.401 544.266 989.135 553.6C993.535 578.133 990.201 614.666 980.468 648C977.668 657.866 973.668 673.2 971.668 682C967.135 702.4 964.468 708.666 959.801 709.866C957.801 710.4 955.668 710.4 954.868 710C954.201 709.466 951.668 709.6 949.401 710.133L945.135 710.933L948.201 713.466C955.135 719.066 965.935 717.733 971.001 710.666C972.335 708.666 975.801 699.6 978.335 690.533C981.001 681.466 985.401 666.666 988.068 657.733C990.601 648.666 993.001 641.466 993.135 641.733C993.668 642.133 991.135 688.533 988.868 721.333C986.601 755.333 987.135 765.066 991.668 770.4C994.735 773.866 995.135 774 1010.07 774H1025.4L1026.2 784.133C1027.27 797.733 1030.47 807.6 1035 812.266L1038.73 816H1034.2C1028.2 816 1017.67 818.666 1017.67 820.133C1017.67 821.866 1024.6 822.533 1055.93 823.333C1084.47 824.133 1085.67 824 1088.2 821.466C1090.47 819.2 1091.67 818.933 1094.33 820C1102.33 823.066 1113.8 824 1119.53 822C1122.47 820.933 1126.6 820 1128.6 820C1138.07 820 1139.13 814.533 1130.87 807.6C1122.6 800.4 1107.8 793.066 1102.73 793.6C1096.47 794.266 1096.73 796.8 1103.27 798.933C1109.13 801.066 1123.53 809.6 1125 812C1126.47 814.266 1122.6 813.466 1119.8 810.8C1118.2 809.466 1112.87 806.133 1107.8 803.466C1099.8 799.2 1097.53 798.666 1091.13 798.933C1087 799.2 1083.8 799.866 1083.8 800.666C1083.93 801.333 1088.47 803.466 1093.8 805.333C1104.2 808.8 1113.67 814 1113.67 816.133C1113.67 818.266 1094.6 813.066 1076.07 805.866C1069.67 803.333 1062.73 801.333 1060.87 801.333C1057.53 801.333 1057.4 801.466 1059.4 803.733C1060.6 805.066 1065.27 808.133 1069.67 810.666C1078.33 815.466 1079.8 817.6 1074.07 816.666C1048.47 812.666 1042.47 810.133 1038.07 801.333C1036.47 798 1034.73 791.866 1034.2 787.6C1033.4 780.8 1033.67 779.6 1036.33 776.666C1039.8 772.933 1049 770.666 1060.73 770.666C1068.47 770.666 1069.13 770.933 1071.27 774.666C1073.93 779.333 1091.93 788.266 1105.67 791.6C1110.47 792.8 1117.67 795.6 1121.67 798C1130.87 803.2 1133.4 804.133 1134.33 802.666C1136.6 799.066 1119.67 787.333 1107 784C1099.4 782 1077.93 771.733 1079.93 771.066C1080.73 770.8 1084.47 771.066 1088.2 771.733C1095.67 773.066 1097.27 772.266 1095 767.866C1091.27 761.066 1075.8 759.066 1047 762C1004.73 766.133 1006.6 766 1002.47 762.4C997.268 758 996.468 751.466 997.801 724.8C1000.87 662.533 1003 594.933 1002.33 580.666C1001.27 560.533 998.468 544.266 994.201 534.8L990.868 527.333L991.401 536.933Z" fill="#DDE5EF"/>
<path d="M1201 609.467C1191.13 612.933 1183.8 617.733 1178.47 624.4C1173.27 630.933 1172.73 640.267 1177.13 646.267C1179.4 649.333 1191 655.6 1200.87 659.067C1201.4 659.2 1199.27 663.333 1195.93 668C1189.13 677.867 1178.87 697.867 1174.07 710.667C1168.73 724.8 1161.67 756.4 1160.73 770.267C1159.93 782.667 1159.8 783.067 1157.8 779.867C1148.73 765.6 1137.67 764 1137.67 776.933C1137.67 782.667 1143.93 803.467 1148.33 812C1153.53 822.4 1164.73 831.733 1162.2 823.6C1161.8 822 1159.93 818.133 1158.07 815.2C1154.87 809.6 1148.2 792.133 1146.47 784.667C1145.53 780.8 1145.53 780.8 1148.2 783.2C1150.6 785.333 1158.6 802.4 1163.13 815.333C1164.47 818.933 1165.93 820.667 1167.53 820.667C1170.2 820.667 1170.33 820.533 1175.67 808.933C1178.33 803.2 1181.27 799.6 1186.87 795.2C1191 792 1194.73 789.333 1195.27 789.333C1195.8 789.333 1192.33 796 1187.53 804.267C1179.13 818.933 1177.13 825.333 1180.87 825.333C1181.93 825.333 1184.6 822.4 1187 818.8C1191.67 811.333 1199.4 803.867 1205.67 800.667L1209.8 798.533L1203.53 810C1200.2 816.267 1197.67 822.267 1198.07 823.2C1198.6 824.667 1201.4 824.933 1211.13 824.4C1225.4 823.6 1234.33 821.333 1234.33 818.667C1234.33 817.067 1231.53 816.533 1221.93 816L1209.53 815.333L1215.13 806.667C1222.33 795.6 1224.73 789.733 1223.8 785.867C1222.73 781.733 1217.53 780.533 1212.2 783.2C1209.8 784.4 1207.8 785.333 1207.67 785.333C1207.53 785.333 1207.4 783.067 1207.53 780.267C1207.67 775.733 1207.27 775.333 1203.8 774.933C1201.8 774.667 1198.47 774.8 1196.73 775.333C1192.07 776.4 1181.27 786.933 1175 796.4C1170.87 802.533 1169.53 803.733 1168.87 802C1167 797.2 1169.53 762 1172.87 746C1177.93 721.867 1183.13 707.6 1195.53 683.733L1206.73 662L1214.47 665.333C1241 676.4 1277.67 659.067 1278.2 635.067C1278.33 630.4 1277.53 628.667 1273.8 624.8C1271.13 622 1266.47 619.2 1262.47 617.867C1258.73 616.667 1254.87 615.067 1254.07 614.267C1252.87 613.467 1252.33 613.6 1252.33 614.8C1252.47 617.333 1254.6 619.867 1262.07 625.733C1269.67 631.867 1269.93 634.667 1264.07 643.467C1257.8 652.8 1248.2 657.333 1233.4 658.267C1222.47 658.933 1221.8 658.8 1210.2 653.733C1203.67 650.8 1195.93 647.6 1193 646.667C1180.87 642.8 1178.47 635.6 1186.47 626.667C1196.6 615.467 1216.33 610.4 1228.33 615.867C1235.27 618.933 1238.2 617.6 1234.2 613.2C1227.8 606.133 1215.13 604.667 1201 609.467Z" fill="#DDE5EF"/>
<path d="M1215.67 624.4C1210.33 626.8 1207.93 630 1208.87 633.066C1210.33 637.466 1215.93 639.333 1227.4 639.333C1236.33 639.2 1238.2 638.8 1239.8 636.666C1244.47 630.4 1238.07 623.866 1226.73 623.066C1222.6 622.8 1217.93 623.333 1215.67 624.4ZM1233.27 631.466C1233.67 632.533 1232.2 632.666 1228.33 632C1220.73 630.666 1219.8 629.066 1226.87 629.6C1230.2 629.866 1233 630.666 1233.27 631.466Z" fill="#DDE5EF"/>
<path d="M247.667 651.6C246.067 655.6 244.067 707.066 244.734 727.866L245.401 747.066L215.934 746.133C199.667 745.733 184.334 744.933 181.934 744.533C173.801 742.933 168.601 735.733 147.934 697.466C137.801 678.8 128.201 668 121.801 668C115.401 668 112.867 670 110.201 676.666C104.334 692.133 114.467 736.8 126.334 748C128.201 749.733 129.667 750.533 129.667 749.733C129.667 748.933 127.534 741.6 125.001 733.466C118.601 712.8 115.934 698.8 116.601 687.866C117.801 666.666 125.801 673.733 146.334 714.133C159.667 740.533 167.801 751.066 176.067 753.333C178.867 754 192.601 755.2 206.734 755.866C231.801 757.066 232.734 757.2 238.734 760.933C243.401 763.866 245.934 766.666 248.734 772.4C252.467 779.733 254.467 781.333 257.134 778.8C257.801 778.133 265.801 776.8 274.867 775.866C289.667 774.4 291.801 773.866 294.601 770.933C297.934 767.333 311.001 742.533 311.001 739.733C311.001 738.8 307.001 734 302.201 729.333C285.934 713.466 277.401 696.4 280.201 685.733C281.801 680 290.601 665.466 296.067 659.6C298.201 657.466 299.001 655.466 298.201 654.8C297.534 654.133 288.867 652.933 279.001 652C269.134 651.066 258.201 650 254.867 649.733C249.801 649.2 248.467 649.6 247.667 651.6Z" fill="#DDE5EF"/>
<path d="M520.867 678.933C467.667 749.867 431.8 789.6 417.133 793.467C406.867 796.267 387.667 791.466 369.667 781.733C364.6 779.066 360.067 777.066 359.8 777.466C357 780.266 339.133 814 340.067 814.933C341.667 816.533 516.867 818.933 632.333 819.067C711.4 819.2 730.733 818.8 738.733 817.2L748.467 815.333L737.4 806.267C693.8 770.133 630.733 709.2 611 684C603.8 674.8 595.8 665.2 593.133 662.8C590.467 660.266 588.333 657.333 588.333 656.4C588.333 655.066 583.133 654.666 563.8 654.666H539.133L520.867 678.933Z" fill="#DDE5EF"/>
<path d="M99.0007 744.4C97.134 745.333 93.6673 749.067 91.2673 752.667C86.8673 759.467 79.0007 781.467 79.0007 787.333C79.0007 793.333 76.734 792 70.334 782.267C49.0007 750.267 36.6007 740.267 30.0673 750.133C28.0673 753.2 28.0673 754.533 29.534 761.733C31.534 771.6 42.8673 795.733 51.4007 808.4L57.534 817.467L30.334 817.067C9.40066 816.8 2.734 817.067 1.40066 818.4C-1.53267 821.333 2.20066 822.267 24.0673 823.467C56.334 825.333 69.134 825.067 71.6673 822.533C74.734 819.6 72.6007 815.067 65.6673 809.467C56.0673 801.867 40.334 774.8 40.334 766.133C40.334 763.6 40.8673 761.2 41.534 760.8C43.534 759.6 51.934 770 63.6673 787.867C69.6673 797.2 76.334 805.867 78.334 807.2C81.6673 809.467 81.934 809.467 83.6673 807.2C84.6007 805.867 85.6673 801.2 86.0673 796.667C87.0007 786.533 90.8673 776.133 97.134 766.667L101.801 759.333L101.134 771.333C100.734 777.867 99.8007 789.867 99.0007 798C98.334 806 98.2007 813.067 98.8673 813.733C101.267 816.133 104.467 812.4 110.867 799.6C114.601 792.133 119.667 783.2 122.334 779.6C127.401 772.933 137.934 764.267 138.734 766.533C139.001 767.2 136.467 773.067 133.267 779.6C124.467 797.067 120.334 808.4 120.334 814.667C120.334 819.733 120.601 820.133 122.467 818.533C125.001 816.4 148.867 767.733 151.934 758.4C153.801 752.533 153.801 751.733 151.801 748.667C147.667 742.4 141.001 744.933 129.534 756.8C125.534 761.2 119.267 769.067 115.667 774.4C112.201 779.733 109.134 783.867 109.001 783.733C108.867 783.467 109.401 778.133 110.067 771.867C111.667 758.4 110.467 748.8 106.867 745.2C103.934 742.267 103.401 742.133 99.0007 744.4Z" fill="#DDE5EF"/>
</svg>
